<?xml version="1.0" encoding="utf-8"?>
<!-- Generator: Adobe Illustrator 22.0.1, SVG Export Plug-In . SVG Version: 6.00 Build 0)  -->
<svg version="1.1" id="Objects" xmlns="http://www.w3.org/2000/svg" xmlns:xlink="http://www.w3.org/1999/xlink" x="0px" y="0px"
	 viewBox="0 0 380 385" style="enable-background:new 0 0 380 385;" xml:space="preserve">
<style type="text/css">
	.st0{fill:#D2E5F9;}
	.st1{fill:#AFD1F9;}
	.st2{fill:#86B7FC;}
	.st3{fill:#4D8EFF;}
	.st4{fill:#E7EFF7;}
	.st5{fill:url(#XMLID_26_);}
	.st6{fill:#EA4949;}
	.st7{fill:#FF564E;}
	.st8{fill:#E6E7E8;}
	.st9{fill:#FFFFFF;}
	.st10{fill:#FFC9AE;}
	.st11{opacity:0.3;}
	.st12{fill:#EF9D78;}
	.st13{fill:url(#XMLID_29_);}
	.st14{fill:#332B28;}
	.st15{fill:url(#XMLID_30_);}
	.st16{fill:#9E3030;}
	.st17{fill:#F9B2B2;}
	.st18{fill:#3970B2;}
</style>
<g>
	<path id="XMLID_141_" class="st0" d="M217.3,347.9c-10.6-2-20.8-4-32.5-2.9c-23.6,2.4-47.2,4.8-70.9,7.3
		c-13.1,1.3-38.8,3.9-51.5,0.3C7.3,337.1,31.2,277,26.8,232.9c-2.4-24.3-14.6-46.2-21.4-69.6C-7.9,117.5,15.1,59.7,59,42.2
		c32-12.8,69.2-19,101.1-6c21.8,8.9,42.2,27.5,54.3,48.3c13.3,22.7,20.9,40.5,48.6,48c21.6,5.8,44.4,4,66.6,6.7
		c10.1,1.2,21.4,4.4,26.2,13.6c7.3,14-4.6,30-7.8,45.6c-4,19.7,8.8,32.6,16.9,48.5c9.4,18.7,15.8,40.7,5.6,60.6
		c-4.6,8.9-12.1,16.3-20.4,22.2c-33.1,23.2-75.2,24.7-113.8,21.1C229.6,350.3,223.4,349.1,217.3,347.9z"/>
	<path id="XMLID_140_" class="st1" d="M340.8,278c-4.7-17.6-11.7-35.4-11.3-49.8c0.4-16.3,12.3-34.5,2.4-49.9
		c-6.6-10.2-19.7-13.1-31-14.2c-15.7-1.5-32.4-0.7-47.2-6.8c-6.8-2.8-13.2-7.3-17.4-13.4c-4.8-7-5.8-15.6-9.3-23.2
		c-8.9-19.2-28.7-26.9-48.8-25.7c-18.3,1.1-36.9,7.3-54.5-0.5C95.3,82,64,66.3,35.7,82c-22.4,12.4-26.1,42.2-19,64.2
		c4.2,13,11.8,24.8,21.4,34.4C49,191.6,62.6,197.5,65,214.3c4.2,29.2-16.7,55.1-26.1,80.9c-12.5,34.5,22,53.3,50.2,37.6
		c22-9.4,40.8-34.5,69-18.8c8.7,6.9,13.5,15.1,19.3,24.5c0.8,1.4,1.7,2.7,2.9,3.8c2.2,1.9,5.3,2.2,8.2,2.5c17.4,1.6,35,4.3,52.4,4.9
		c15.9,0.5,32.2-2.6,47.9-5.5c13.9-2.6,31.3,0.1,42.9-9.5C349.1,320.4,346.6,299.4,340.8,278z"/>
	<path id="XMLID_139_" class="st2" d="M325.6,284.8c-4.3-16-10.6-32.1-10.3-45.1c0.3-14.8,11.2-31.3,2.2-45.2
		c-6-9.2-17.9-11.9-28.1-12.8c-14.2-1.3-29.3-0.6-42.7-6.1c-6.2-2.5-12-6.6-15.8-12.1c-4.4-6.3-5.3-14.1-8.4-21
		c-8.1-17.4-26-24.4-44.2-23.3c-16.6,1-33.4,6.6-49.4-0.5c-25.6-11.4-54-25.6-79.5-11.4c-20.2,11.2-23.7,38.2-17.2,58.2
		c3.8,11.7,10.7,22.4,19.3,31.2c9.8,9.9,22.2,15.2,24.3,30.5c3.8,26.4-15.2,49.9-23.7,73.3c-11.4,31.2,19.9,48.3,45.4,34.1
		c19.9-8.5,36.9-31.2,62.5-17c7.9,6.3,12.3,13.7,17.4,22.2c0.8,1.2,1.5,2.5,2.6,3.4c2,1.7,4.8,2,7.5,2.3c15.7,1.5,31.7,3.9,47.5,4.4
		c14.4,0.5,29.2-2.3,43.4-5c12.6-2.3,28.3,0.1,38.9-8.6C333.1,323.2,330.8,304.1,325.6,284.8z"/>
	<path id="XMLID_138_" class="st3" d="M162.4,135.1c0,0-118.9,31.4-122,35.7c-3.1,4.2-17.8,15.9-6.6,61.6
		c11.2,45.7,19.4,107.2,51.9,99.3c32.5-7.9,82.5-14.9,83.3-21.5C169.8,303.6,193.3,126.8,162.4,135.1z"/>
	<path id="XMLID_137_" class="st3" d="M162.4,135.1c0,0-107.9,28.5-120.7,34.9c-4.7,11.9,14.4,11.8,17.4,17.7
		c9.3,18.6,5.9,36.9-8.1,50.8c9.5-0.2,17.3,4.6,22,13.9c6.3,18.7,0.5,27.3-6.9,33.1c5.9,3.7,11.9,7,16.6,16.3
		c3.7,11.1,10.8,22.2,2.7,29.9c0.1,0,0.3,0,0.4-0.1c32.5-7.9,107.7-23.9,104.5-29.7C177.3,279.3,199.8,142.5,162.4,135.1z"/>
	<path id="XMLID_136_" class="st4" d="M291.4,279.2l-186.5,73.4l25.3,11.4c59.3,26.6,127.9,22.8,183.9-10.2L361,326
		c16.3-9.6,11.2-34.3-7.6-36.7L291.4,279.2z"/>
	<linearGradient id="XMLID_26_" gradientUnits="userSpaceOnUse" x1="159.5368" y1="235.4035" x2="286.3405" y2="235.4035">
		<stop  offset="0" style="stop-color:#FFDDCC"/>
		<stop  offset="1" style="stop-color:#FFBC97"/>
	</linearGradient>
	<path id="XMLID_134_" class="st5" d="M159.5,192c0,0,26.5-18.6,33.7,20.9c3.1,16.8,3.7,21.1,3.7,21.1c22.5,3.5,25.5,11.6,54,14.9
		c21.8,0,33,11.6,33,11.6s3.5,8.7,2,12.8c-1.5,4.1-6.4,4.9-6.4,4.9s0.1,3.4-1.2,4.7c-1.3,1.4-3-10.9-7-13.6c-4-2.6-1.2,4.5-2.4,5.2
		c-1.3,0.8-6.3-4.4-10.1-10.7c-3.8-6.3-17.5,4.3-75.8-6C164.9,239.9,159.5,192,159.5,192z"/>
	<path id="XMLID_133_" class="st6" d="M199.8,214.9c-1.5-3.6-3.4-9.5-5.1-13.9c-15.8-42.6-35.2-36.2-35.2-36.2s4.7,34.5,13.6,61.1
		C179.9,224.3,194,218.3,199.8,214.9z"/>
	<path id="XMLID_132_" class="st7" d="M184.5,313.7c-11.4,11.1-38.3,18.3-58.7,17.9c-9.4-0.1-14.2-1.4-25.5-3
		c-24.5-43.8-25.5-86.1-25.5-86.1l-5.8,1.5c0,0-12.8-19.4-13.2-44.2c-0.4-24.8,38.9-38.2,42.4-39.3c28.3-9.7,52.5-1.9,70.6,5.2
		C188.2,207.9,171.8,266.8,184.5,313.7z"/>
	<path id="XMLID_131_" class="st8" d="M116.6,297c11.7,27.6,9.6,33.9,9.2,34.6c-9.4-0.1-17.4-1.9-21.7-5.6
		c-20.9-26.1-29.3-83.6-29.3-83.6l2.3-0.7c0,0,8-1.1,14.9-9.9c6.8-8.7,12.1-7.6,12.1-7.6s-4.5-12.6-9.7-20.7
		c9.3,6.6,19.6,28.1,19.9,38.9C114.8,253.2,145,254,145,254S104.1,267.6,116.6,297z"/>
	<path id="XMLID_130_" class="st9" d="M99.1,151.7c0,0-8.7,8.3-10.1,12.8c2.1,9.9,20.8,26.9,26.9,25.2c5.9-11.6,10-12.2,10-12.2
		l0.7-15.6L99.1,151.7z"/>
	<path id="XMLID_129_" class="st9" d="M125.9,177.5c0,0,9.7,2,11.6,10.5c6.8-0.2,16.8-15.8,13.4-30c-5.1-8.1-17.3-11.1-17.3-11.1
		L125.9,177.5z"/>
	<path id="XMLID_128_" class="st6" d="M141.1,158.1c-2,4.8-7.4,11.1-15.2,19.4c-1.8-7.2-19-11.4-26.3-17.4c-1.2-0.9-2-1.9-2.6-3v0
		c-0.1-0.2-0.2-0.5-0.3-0.7c-0.8-2.6,1.1-4.4,4.2-5.6c0.1,0,0.3-0.1,0.5-0.2c7.1-2.8,19.4-3.1,19.4-3.1s7.8-2.1,14.3-0.1
		c0.3,0,0.6,0.2,0.9,0.3c1.2,0.4,2.3,1,3.3,1.7c1.2,0.9,1.9,1.9,2.3,2.9C142.2,154,142.1,155.9,141.1,158.1z"/>
	<g id="XMLID_123_">
		<g>
			<g id="XMLID_35_">
				<path class="st10" d="M141.1,158.1c-2,4.8-7.4,11.1-15.2,19.4c-1.8-7.2-19-11.4-26.3-17.4c0.5-0.9,1-2,1.3-3.4
					c0.4-1.6,0.6-3.6,0.5-6.1c0-0.5,0-0.9,0-1.4c-0.7-11.6-9.6-24.4,3.8-24.5c13.4-0.1,29.9,6.4,29.9,6.8c0,0.3-0.5,9,0,15.9
					c0.2,2.4,0.5,4.6,0.9,6.2c0.3,1.2,0.7,2,1.3,2.4C138.6,157,140,157.6,141.1,158.1z"/>
			</g>
		</g>
	</g>
	<g id="XMLID_118_" class="st11">
		<g>
			<g id="XMLID_36_">
				<path class="st12" d="M135.4,166.9c2.7-3.4,4.7-6.3,5.7-8.8c-1.2-0.5-2.6-1.1-3.9-2.1c-0.5-0.4-0.9-1.2-1.3-2.4
					c-0.5-1.6-0.7-3.8-0.9-6.2c-0.5-7,0-15.7,0-15.9c0-0.5-16.5-7-29.9-6.8c-3.2,0-5.1,0.8-6.1,2.1
					C102.1,147,118.1,158.7,135.4,166.9z"/>
			</g>
		</g>
	</g>
	
		<linearGradient id="XMLID_29_" gradientUnits="userSpaceOnUse" x1="85.374" y1="113.8654" x2="149.8009" y2="113.8654" gradientTransform="matrix(1.0515 -1.800000e-03 -1.800000e-03 1.0001 6.690000e-02 0.2023)">
		<stop  offset="0" style="stop-color:#FFDDCC"/>
		<stop  offset="1" style="stop-color:#FFBC97"/>
	</linearGradient>
	<path id="XMLID_116_" class="st13" d="M156.1,109.8c0,0,6.4,18.7-9.6,34.3c-3.7,3.7-1.6,6-9.5,7.4c-39.8,1.3-46.9-39.3-47.4-52
		C89.2,86.9,160.2,48.7,156.1,109.8z"/>
	<path id="XMLID_115_" class="st14" d="M88,130.7c2.3,2,4.9,3.8,7.9,5.2c2.3,1.1,4.8,1.9,7.2,1.4c-3.5-5.5-5.8-11.7-6.5-18.2
		c-0.2-1.7,0-3.9,1.6-4.4c1.1-0.4,2.3,0.3,3.2,1.1c2.6,2.3,4.4,5.4,4.9,8.8c-0.4-5.5,1.3-11.1,4.7-15.5c3.2-4,8.5-6.3,13.4-7.2
		c5.5-1,10,1.2,15.4,1c8.2-0.2,16-1.2,20.9-8.6c3.9-5.8,4.5-13.4,2.3-20c-4,2.4-9.2,1.2-13.1-1.3c-3.9-2.5-7-6.1-10.7-8.9
		c-6.6-5-15.1-7.2-23.4-7.4c-5.4-0.1-10.8,0.6-16.1,1.6c-4.8,1-9.8,1.6-13.1,5.6c-0.3,0.4-2.7,4.9-2.5,4.9
		c-7.6-0.1-18.2,7.8-14.8,23.2C72.5,105.8,77.2,121.3,88,130.7z"/>
	<linearGradient id="XMLID_30_" gradientUnits="userSpaceOnUse" x1="77.2368" y1="202.3189" x2="131.139" y2="202.3189">
		<stop  offset="0" style="stop-color:#FFDDCC"/>
		<stop  offset="1" style="stop-color:#FFBC97"/>
	</linearGradient>
	<path id="XMLID_113_" class="st15" d="M77.2,241.7c17.4-4.5,13.9-16.9,27-17.5l1,1.8c0,0,0.9-14,10.7-45.3c0,0-10.2-17.7-10.7-22.1
		c-0.6-4.4,3.2-18.9,7.6-18.6c4.4,0.3,5,4.3,5,4.3s2.9,0.4,3.4,4.7c0,0,4.4-1.2,4.4,5.8c1.7,0.3,5.2,3.2,3.5,9.9
		c-1.7,6.7,5.3,15.1,0.5,18.6c-1.1,11.9,5.9,59.3-14,80.2C101.2,269.3,84.4,251.1,77.2,241.7z"/>
	<path id="XMLID_112_" class="st16" d="M332.5,303.4c-0.2,1.4-1,2.8-2.6,3.7l-75.7,44.2c-1.3,0.7-2.7,0.9-4.1,0.5l-53.6-15.7
		c-4.7-1.3-5.1-7.9-0.6-9.9l69.4-29.5l16.7-7.1c0.9-0.4,2-0.5,3-0.3l43.1,8.1C331.3,298,332.9,300.8,332.5,303.4z"/>
	<path id="XMLID_111_" class="st17" d="M332.5,303.4c-0.2,1.4-1,2.8-2.6,3.7l-75.7,44.2c-1.3,0.7-0.7-1.3-2.1-1.7l-53.6-15.7
		c-4.7-1.3-7.1-5.7-2.6-7.6l69.4-29.5l16.7-7.1c0.9-0.4,2-0.5,3-0.3l43.1,8.1C331.3,298,332.9,300.8,332.5,303.4z"/>
	<path id="XMLID_110_" class="st7" d="M344.3,236.7c2.3-1.2,5,0.9,4.3,3.4l-16.2,63.3c-0.2,1.4-1,2.8-2.6,3.7l-75.7,44.2
		c-1.3,0.7-2.7,0.9-4.1,0.5l15.2-55.1l5.2-18.7c0.5-1.9,1.8-3.5,3.5-4.4L344.3,236.7z"/>
	<path id="XMLID_109_" class="st18" d="M142,341.1l8.1,23.9c0,0,20.5,11.5,34.4-1c8-20.8,8.2-24.8,8.2-24.8L142,341.1z"/>
	<path id="XMLID_108_" class="st7" d="M139.2,336.7c0,0,2.5,8.2,4.8,12c2.3,3.9,38.4,5,47.3-1.7c4.2-9.9,3.9-11.3,3.9-11.3
		L139.2,336.7z"/>
	<path id="XMLID_107_" class="st7" d="M138.6,335l0.7,1.7c0,0,3.7,4.4,19.3,4.1c15.7-0.4,34.7-0.1,36.7-5.1
		C197.4,330.7,149.2,329.9,138.6,335z"/>
	<path id="XMLID_106_" class="st0" d="M143.6,335l0.5,1c0,0,3,2.7,15.9,2.4c12.9-0.2,28.5,0,30.2-3.1
		C192,332.4,152.3,331.9,143.6,335z"/>
	<path id="XMLID_105_" class="st18" d="M165.5,335.8c-4.6-13.5-13.7-25.4-25.6-33.4c-6.2-4.1-13.5-7.3-20.9-6.3
		c-2.2,0.3-4.5,1.1-5.9,2.8c-2.1,2.5-1.7,6.4,0.1,9.2c1.8,2.7,4.7,4.5,7.6,6c13.4,7.1,31,8.2,38.3,21.5c0.6,1.1,5.7-2.5,6.2-1.4"/>
	<path id="XMLID_104_" class="st18" d="M189.2,325.9c-3.6,1.5-6.8,3.8-9.1,6.9c-2.1,2.9-5.2,3.8-8.7,4.7c-0.3,0.1-0.6,0.1-0.8,0
		c-0.3-0.1-0.4-0.4-0.5-0.7c-0.9-2.5-1.2-5.2-2.2-7.7c-1.5-3.8-3.5-7-5.9-10.3c-3.3-4.4-4.9-10-4.6-15.4c1.7,5.6,6.9,6.8,11.7,8.5
		c1.4,0.5,1.9,0.9,2.2-0.6c0.4-1.9-1.1-4.8-1.7-6.7c-0.5-1.9-1.1-3.8-1.5-5.7c-0.4-1.8-0.6-3.6-0.7-5.5c-0.1-1.9-0.1-3.8,0.4-5.6
		c0.4-1.4,1.1-2.8,1.9-4c1.9-2.9,4.6-5.4,7.6-7c-0.5,1.7,0.3,3.5,1.3,5c1.1,1.7,2,4.1,3.4,5.5c0.6,0.5,1.4,0.9,2.1,0.6
		c0.5-0.2,0.9-0.6,1.2-1c1.2-1.6,1.8-3.5,2.6-5.4c0.9-2,2-3.1,3.4-4.7c3.1-3.5,6.9-6,11.7-6.3c0.5,0,1,0,1.5,0.2
		c0.7,0.3,1.2,0.9,1.6,1.5c2.3,3.5,2.7,8,1.5,12c-0.5,1.7-1.4,4-2.7,5.3c-1.6,1.7-3.6,2.6-4.8,4.7c-1.7,2.8,4.9,1.3,5.8,1.1
		c1.6-0.5,3.2-1,4.5-1.9c1.3-0.9,2.4-2.4,2.6-4c2.5,2.5,4.1,5.9,4.1,9.4c-0.1,9.2-9.6,9.4-16.1,11.8c1.5,1.5,2.8,2.8,5.2,2.9
		c1.6,0.1,3.3-0.4,4.6-1.4c-0.1,0,0,2.9-0.1,3.3c-0.3,1.1-0.9,2.2-1.6,3.1c-1.8,2.1-4.2,3-6.8,3.7
		C198,323.2,193.4,324.1,189.2,325.9z"/>
	<path id="XMLID_103_" class="st3" d="M165.7,336.9c-4.6-2.5-6.9-7.9-7.5-13.2c-0.6-5.2,0.3-10.5,0.3-15.7c0.1-5.3-0.7-10.8-3-15.6
		c-1.6-3.3-3.8-6.3-5.8-9.4c-2-3.1-3.9-6.4-4.5-10c-0.6-3.6,0.1-7.7,2.7-10.3c1.9-1.9,4.6-2.9,7.3-3.4c2.7-0.6,5.5-0.8,8.3-0.2
		c0.8,0.2,1.5,0.4,2.2,0.9c0.6,0.5,1,1.2,1.3,2c2.1,5.4,0.2,11.4-1,17c-0.6,2.9-1.1,6.1,0.2,8.7c1.3,2.7,4.1,4.3,6.6,5.9
		c2.5,1.6,5.1,3.6,5.8,6.6c0.5,2.1-0.3,4.4-1.4,6.3c-1.1,1.9-2.6,3.5-4,5.2c-5.4,7.3-7.1,17.2-4.3,25.8"/>
	<path id="XMLID_101_" class="st1" d="M332.5,70c0,17.7-23.1,32.1-51.7,32.1c-7.4,0-14.5-1-20.9-2.7c-1.9-0.5-15.9,2.7-15.9,2.7
		s6-6.3,3.9-7.3c-11.5-5.9-18.8-14.8-18.8-24.8c0-17.7,23.1-32.1,51.7-32.1C309.4,37.9,332.5,52.3,332.5,70z"/>
	<path id="XMLID_100_" class="st9" d="M266,70.6c0,2.4-2,4.4-4.4,4.4c-2.4,0-4.4-2-4.4-4.4c0-2.4,2-4.4,4.4-4.4
		C264,66.2,266,68.1,266,70.6z"/>
	<path id="XMLID_99_" class="st9" d="M285.8,70.6c0,2.4-2,4.4-4.4,4.4c-2.4,0-4.4-2-4.4-4.4c0-2.4,2-4.4,4.4-4.4
		C283.9,66.2,285.8,68.1,285.8,70.6z"/>
	<circle id="XMLID_95_" class="st9" cx="301.3" cy="70.6" r="4.4"/>
	<g id="XMLID_90_">
		<path id="XMLID_91_" class="st9" d="M260,177.9c0.1,0.3,0.3,0.6,0.5,0.9c0.6,0.9,1.2,1.5,2,1.6c0.7,0.2,1.4,0.1,2.1-0.4
			c1.5-0.9,2.4-2.5,2.7-4.8c0.3-2.3,0.1-4.8-0.6-7.6c-0.7-2.8-1.9-5.4-3.4-7.9c-1.7-2.7-3.8-4.6-6.3-5.8c-2.5-1.2-5.3-1.7-8.3-1.3
			c-3,0.4-6.1,1.5-9.1,3.5c-4.9,3.1-8.6,6.9-11.4,11.3c-2.7,4.4-4,9.2-4,14.3c0.1,5.1,1.7,10.1,4.8,15.1c1.8,2.9,4.1,5.2,6.9,7
			c2.8,1.8,5.9,2.6,9.4,2.6c3.5,0,7.1-1.3,10.9-3.7c2.9-1.8,5.1-3.6,6.5-5.3c1.5-1.7,2.9-3.8,4.1-6.2c0.3-0.5,0.6-0.8,0.9-1
			c0.8-0.5,1.6-0.4,2.6,0.3c0.3,0.2,0.5,0.3,0.6,0.6c0.5,0.8,0.3,2.1-0.6,3.8c-1.6,2.6-3.1,4.9-4.7,6.8c-1.6,1.9-3.8,3.7-6.6,5.5
			c-4.9,3.1-9.5,4.7-13.9,4.7c-4.4,0.1-8.4-1-11.9-3.3c-3.5-2.2-6.4-5.2-8.7-8.9c-3.7-5.8-5.5-11.7-5.6-17.7
			c-0.1-6.1,1.5-11.7,4.6-17c3.1-5.3,7.6-9.7,13.2-13.3c4.2-2.7,8.3-4.1,12.3-4.4c4-0.3,7.6,0.4,10.9,2.1c3.2,1.7,5.9,4.2,8.1,7.6
			c2,3.2,3.4,6.7,4,10.4c0.6,3.8,0.4,7.3-0.7,10.7c-1.1,3.4-3.2,6-6.2,7.9c-1.6,1-3.2,1.4-5,1.3c-1.8-0.1-3.3-0.7-4.4-1.9
			c0.2,4.2-1.6,7.6-5.5,10c-1.4,0.9-3.1,1.4-4.8,1.5c-1.8,0.1-3.5-0.4-5.3-1.3c-1.7-0.9-3.2-2.3-4.3-4.2c-1.5-2.4-2.5-5.3-2.9-8.6
			c-0.4-3.4-0.1-6.6,0.9-9.6c1-3.1,2.7-5.4,5.1-6.9c1.3-0.8,2.7-1.2,4.2-1.2c1.5,0,2.9,0.5,4.2,1.4l-0.8-1.7
			c-0.3-0.7-0.3-1.4-0.1-2.2c0.2-0.8,0.8-1.5,1.8-2.1c2-1.3,3.6-1.1,4.6,0.5c0.2,0.4,0.4,0.7,0.5,0.9L260,177.9z M249.5,172.8
			c-1-1.6-2.1-2.4-3.4-2.6c-1.3-0.2-2.6,0.2-3.9,1c-1.4,0.9-2.4,2.3-2.8,4.2c-0.4,1.9-0.4,3.9,0.1,6.1c0.5,2.2,1.3,4.1,2.3,5.7
			c0.9,1.4,2,2.3,3.1,2.6c1.2,0.3,2.3,0.1,3.6-0.7c1.2-0.8,2.1-1.8,2.6-3.2c0.5-1.4,0.8-2.8,0.8-4.3c0-1.5-0.2-2.7-0.5-3.8
			C251,175.7,250.3,174,249.5,172.8z"/>
	</g>
	<g id="XMLID_2_">
		<g>
			<path id="XMLID_53_" class="st7" d="M31.2,15c0-3.3,0.8-5.8,2.4-7.6c1.6-1.8,3.8-2.7,6.7-2.7c1.4,0,2.7,0.3,4.1,1
				c1.4,0.7,2.6,1.6,3.6,2.7c1,1.1,1.4,2.3,1.4,3.6c0,1-0.2,1.8-0.6,2.3c-0.4,0.5-1,0.9-1.8,1.3c-0.7-0.4-1.6-0.7-2.7-0.7
				c-1.1,0-2,0.3-2.7,0.8c-0.7,0.5-1,1.2-1,1.9c0,1.6,0.9,2.9,2.7,3.9c0.3,0.1,0.7,0.3,1.3,0.5c0.6,0.2,1.2,0.5,1.7,0.9
				c0.5,0.4,0.8,1.1,0.8,2.2c0,1.3-0.4,2.3-1.3,2.9c-0.8,0.6-2,0.9-3.4,0.9c-1.9,0-3.7-0.8-5.4-2.5c-1.7-1.7-3.2-3.6-4.2-5.9
				C31.8,18.4,31.2,16.5,31.2,15z M9.9,15c0-3.3,0.8-5.8,2.4-7.6c1.6-1.8,3.8-2.7,6.7-2.7c1.4,0,2.7,0.3,4.1,1
				c1.4,0.7,2.6,1.6,3.6,2.7c1,1.1,1.4,2.3,1.4,3.6c0,1-0.2,1.8-0.6,2.3c-0.4,0.5-1,0.9-1.8,1.3C25,15.2,24.1,15,23,15
				c-1.1,0-2,0.3-2.7,0.8c-0.7,0.5-1,1.2-1,1.9c0,1.6,0.9,2.9,2.7,3.9c0.3,0.1,0.7,0.3,1.3,0.5c0.6,0.2,1.2,0.5,1.7,0.9
				c0.5,0.4,0.8,1.1,0.8,2.2c0,1.3-0.4,2.3-1.3,2.9c-0.8,0.6-2,0.9-3.4,0.9c-1.9,0-3.7-0.8-5.4-2.5c-1.7-1.7-3.2-3.6-4.2-5.9
				C10.5,18.4,9.9,16.5,9.9,15z"/>
		</g>
	</g>
</g>
</svg>
