<?xml version="1.0" encoding="utf-8"?>
<!-- Generator: Adobe Illustrator 22.0.1, SVG Export Plug-In . SVG Version: 6.00 Build 0)  -->
<svg version="1.1" id="Objects" xmlns="http://www.w3.org/2000/svg" xmlns:xlink="http://www.w3.org/1999/xlink" x="0px" y="0px"
	 viewBox="0 0 380 385" style="enable-background:new 0 0 380 385;" xml:space="preserve">
<style type="text/css">
	.st0{fill:#B7CFF6;}
	.st1{fill:#FFFFFF;}
	.st2{fill:#CBDDF5;}
	.st3{fill:#80A6FB;}
	.st4{fill:#A9C7F9;}
	.st5{fill:#658CFA;}
	.st6{fill:#5E83D8;}
	.st7{fill:#F0F0F0;}
	.st8{fill:#DE574F;}
	.st9{fill:url(#SVGID_1_);}
	.st10{fill:#EEC0AE;}
	.st11{fill:#DA9B79;}
	.st12{fill:url(#SVGID_2_);}
	.st13{fill:#342F2C;}
	.st14{fill:url(#SVGID_3_);}
	.st15{fill:#CA4A4A;}
	.st16{fill:#873333;}
	.st17{fill:#772F2F;}
	.st18{fill:#5691CC;}
	.st19{fill:#E6AFAF;}
	.st20{fill:#F5DBCA;}
	.st21{fill:url(#SVGID_4_);}
</style>
<g>
	<g>
		<path id="XMLID_5_" class="st0" d="M272.6,83.9c0,7.6-9.9,13.7-22.1,13.7c-3.2,0-6.2-0.4-8.9-1.2c-0.8-0.2-6.8,1.2-6.8,1.2
			s2.5-2.7,1.7-3.1c-4.9-2.5-8-6.3-8-10.6c0-7.6,9.9-13.7,22.1-13.7C262.7,70.2,272.6,76.4,272.6,83.9z"/>
		<path id="XMLID_4_" class="st1" d="M244.2,84.2c0,1-0.8,1.9-1.9,1.9c-1,0-1.9-0.8-1.9-1.9c0-1,0.8-1.9,1.9-1.9
			C243.3,82.3,244.2,83.1,244.2,84.2z"/>
		<path id="XMLID_3_" class="st1" d="M252.6,84.2c0,1-0.8,1.9-1.9,1.9c-1,0-1.9-0.8-1.9-1.9c0-1,0.8-1.9,1.9-1.9
			C251.8,82.3,252.6,83.1,252.6,84.2z"/>
		<circle id="XMLID_1_" class="st1" cx="259.2" cy="84.2" r="1.9"/>
	</g>
	<path class="st2" d="M161.5,93.8l-67.4,39.6c-17.1-5.2-38.9-3.6-53.3,4.8c-17.5,10.3-17.4,26.7,0.3,36.7c4,2.2,8.5,4,13.3,5.2
		c3.4,0.9,6.9,1.5,10.5,1.8c14,1.4,29-1.1,39.8-7.5c13.1-7.7,16.3-18.8,9.7-28.1l9.3-5.5l-0.3-5.9l9.8-0.1l-0.2-5.5l9.8-0.1
		l-0.2-5.5l9.8-0.1l-0.2-5.5l9.8-0.1l-0.2-5.5l10.5-0.1l3.2-1.9l3.5-14.5L161.5,93.8z M66.6,169.5c-4.6,2.7-12,2.7-16.6,0.1
		c-4.6-2.6-4.6-6.9-0.1-9.6c4.6-2.7,12-2.7,16.6-0.1C71.1,162.6,71.2,166.8,66.6,169.5z"/>
	<path class="st2" d="M198.4,344.1l-91-52.3c-6.1-3.5-5.4-9.7,1.7-13.8l88.3-51c7.1-4.1,17.8-4.5,23.9-1l91,52.3
		c6.1,3.5,5.4,9.7-1.7,13.8l-88.3,51C215.2,347.2,204.5,347.6,198.4,344.1z"/>
	<g>
		<g>
			<path class="st3" d="M305,225.5l-15.7-9.1l58-33.5c2.7-1.6,2.7-4.2,0-5.7l-59.2-34.2c-2.7-1.6-7.2-1.6-9.9,0l-58,33.5l-15.7-9.1
				l58-33.5c11.4-6.6,30-6.6,41.4,0l59.2,34.2c11.4,6.6,11.4,17.3,0,23.9L305,225.5z"/>
		</g>
	</g>
	<g>
		<path class="st4" d="M330.4,229.5c0-8.4-5.1-18.2-11.4-21.8l-105-60.6c-2.8-1.6-5.4-1.7-7.4-0.6l0,0L81.1,219.3l121.3,91.4
			L326,239c0.4-0.2,0.8-0.4,1.1-0.6l0,0l0,0C329.1,236.8,330.4,233.7,330.4,229.5z"/>
		<path class="st5" d="M202.4,310.7L326,239c0.4-0.2,0.8-0.4,1.1-0.6l0,0l0,0c2.1-1.6,3.3-4.6,3.3-8.8c0-4-1.2-8.3-3.1-12.1
			l-140.9,81.3L202.4,310.7z"/>
		<path class="st3" d="M194.5,310.4l-105-60.6c-6.3-3.6-11.4-13.4-11.4-21.8l0,0c0-8.4,5.1-12.3,11.4-8.6l105,60.6
			c6.3,3.6,11.4,13.4,11.4,21.8l0,0C205.9,310.2,200.8,314,194.5,310.4z"/>
	</g>
	<path class="st1" d="M178.8,289.9l-12.6-7.3c-1.3-0.7-2.3-2.7-2.3-4.3l0,0c0-1.7,1-2.4,2.3-1.7l12.6,7.3c1.3,0.7,2.3,2.7,2.3,4.3
		l0,0C181.1,289.9,180,290.7,178.8,289.9z"/>
	<polygon class="st6" points="84,76.4 105.5,88.6 127.6,75.7 127.5,70.1 127.3,70.2 127.3,69.8 137.1,69.7 137,64.2 146.6,64.1 
		146.6,58.6 156.2,58.5 156.1,53 165.7,52.9 165.7,47.4 175.9,47.3 179.1,45.5 182.7,30.9 182.6,25.3 180.9,30.7 165.4,28.6 	"/>
	<g>
		<g>
			<g>
				<polygon class="st4" points="105.5,83 127.5,70.1 127.2,64.2 137,64.1 136.8,58.6 146.6,58.5 146.3,53 156.1,52.9 155.9,47.4 
					165.7,47.3 165.4,41.8 175.9,41.7 179.1,39.8 182.6,25.3 165.3,23 83.9,70.8 				"/>
			</g>
		</g>
	</g>
	<g>
		<g>
			<g>
				<path class="st6" d="M120.1,74.4c-2.2-3.1-5.5-6.1-10-8.6c-3.1-1.8-6.6-3.2-10.3-4.4l-15.9,9.3L105.5,83L120.1,74.4z"/>
			</g>
		</g>
	</g>
	<g>
		<g>
			<polygon class="st6" points="182,27.7 182.6,25.3 179.7,24.9 110.9,65.3 114.5,67.3 			"/>
		</g>
	</g>
	<path class="st6" d="M45.1,112.1c17.6,10,46.1,9.8,63.6-0.4c8.8-5.1,13.1-11.8,13-18.5l0,0l-0.2-8.5l-1.4,1.6
		c-2-4.2-5.9-8.1-11.6-11.4c-17.6-10-46.1-9.8-63.6,0.4C27.3,85.6,27.5,102.1,45.1,112.1z M70.6,97.1c4.6,2.6,4.6,6.9,0.1,9.6
		c-4.6,2.7-12,2.7-16.6,0.1c-4.6-2.6-4.6-6.9-0.1-9.6C58.6,94.6,66,94.5,70.6,97.1z"/>
	<g>
		<g>
			<path class="st7" d="M44.9,104.1c17.6,10,46.1,9.8,63.6-0.4c17.5-10.3,17.4-26.7-0.3-36.7c-17.6-10-46.1-9.8-63.6,0.4
				C27.1,77.6,27.2,94.1,44.9,104.1z M70.3,89.2c4.6,2.6,4.6,6.9,0.1,9.6c-4.6,2.7-12,2.7-16.6,0.1c-4.6-2.6-4.6-6.9-0.1-9.6
				C58.3,86.6,65.7,86.5,70.3,89.2z"/>
		</g>
	</g>
	<path class="st3" d="M65.3,108.5c-3.9,0.6-8.2,0.1-11.2-1.7c-3.3-1.9-4.2-4.6-2.8-7l-8-6.3c0,0-4.2-4.7-8.3-9.4
		c-6.4,9.4-3,20.5,10.1,28c5.8,3.3,12.3,5.2,19.7,6.3L65.3,108.5z"/>
	<g>
		<g>
			<g>
				<path class="st4" d="M44.9,104.1c4,2.2,8.5,4,13.3,5.2c3.4,0.9,6.9,1.5,10.5,1.8c14,1.4,29-1.1,39.8-7.5
					c17.5-10.3,17.4-26.7-0.3-36.7c-17.6-10-46.1-9.8-63.6,0.4C27.1,77.6,27.2,94.1,44.9,104.1z M70.3,89.2c4.6,2.6,4.6,6.9,0.1,9.6
					c-4.6,2.7-12,2.7-16.6,0.1c-4.6-2.6-4.6-6.9-0.1-9.6C58.3,86.6,65.7,86.5,70.3,89.2z"/>
			</g>
		</g>
	</g>
	<g>
		<g>
			<g>
				<g>
					<path class="st6" d="M36.5,85.9c0.9-5.1,4.7-10.1,11.4-14.1c15.6-9.1,40.9-9.3,56.6-0.4c7.8,4.4,11.7,10.3,11.8,16.1
						c1.1-6.7-2.8-13.5-11.6-18.6c-15.7-8.9-41-8.7-56.6,0.4C40.3,74,36.4,80,36.5,85.9z"/>
				</g>
			</g>
		</g>
	</g>
	<g>
		<g>
			<g>
				<g>
					<g>
						<path class="st5" d="M25.9,158.6c-3.2,0-6.1-0.8-8.8-2.3c-6.3-3.6-9.8-10.8-9.9-20.3c-0.1-17.3,11.9-38.6,26.9-47.3
							c8.2-4.8,16.2-5.5,22.5-1.9c2.7,1.5,4.9,3.7,6.5,6.5c2.2,3.7,3.3,8.4,3.4,13.8c0.1,17.3-11.9,38.6-26.9,47.3
							C34.9,157.2,30.2,158.6,25.9,158.6z M47.7,90.9c-3.2,0-6.7,1.1-10.4,3.3c-13.2,7.7-23.9,26.5-23.7,41.8
							c0,7.1,2.4,12.4,6.7,14.8c4.3,2.4,10,1.8,16.1-1.8c13.2-7.7,23.9-26.5,23.7-41.8c0-4.2-0.9-7.9-2.5-10.6l0,0
							c-1.1-1.8-2.5-3.3-4.2-4.2C51.7,91.4,49.8,90.9,47.7,90.9z"/>
					</g>
				</g>
			</g>
		</g>
	</g>
	<path class="st4" d="M56,105l12.6,3.1l1.8-9.3c-4.6,2.7-12,2.7-16.6,0.1L56,105z"/>
	<path class="st4" d="M44.9,104.1c4,2.2,8.5,4,13.3,5.2c3.4,0.9,6.9,1.5,10.5,1.8c14,1.4,29-1.1,39.8-7.5l-51.1-1.1L44.9,104.1z"/>
	<path class="st6" d="M63.7,110.6c0,0-5.4-0.9-11.1-2.9v7.8c2.7,0.9,7.2,2.3,11,2.8C75.3,119.9,63.7,110.6,63.7,110.6z"/>
	<path class="st3" d="M55.6,108.6c-2.3-0.7-4.9-1.6-7.2-2.7c-6.8-3.2,1.8,8.7,1.8,8.7s2.3,0.9,5.4,1.9V108.6z"/>
	<polygon class="st3" points="183.8,246.5 161.5,260.9 150.6,259.1 177.2,246.3 	"/>
	<path class="st5" d="M156.8,319.3c0,0-6.4-3.2-10.4,1.6c-4,4.8-9.6,16.3-9.8,24c-0.2,7.7,6.1,7.2,9.8,5.4
		c3.7-1.8,14.6-17.7,15.3-20.8c0.7-3.1-0.8-7.3-1.8-8.1C158.9,320.5,156.8,319.3,156.8,319.3z"/>
	<path class="st3" d="M158.2,317.7l0.3,6.7c0.1,1.4-0.7,2.8-1.9,3.5c-1.1,0.6-2.8,1.1-5,0.8c-4.9-0.8-5.3-2.2-5.6-8.8
		C145.7,313.1,158.2,317.7,158.2,317.7z"/>
	<path class="st5" d="M133.2,306.5c0,0-6.4-3.2-10.4,1.6c-4,4.8-9.6,16.3-9.8,24c-0.2,7.7,6.1,7.2,9.8,5.4
		c3.7-1.8,14.6-17.7,15.3-20.8c0.7-3.1-0.8-7.3-1.8-8.1C135.3,307.7,133.2,306.5,133.2,306.5z"/>
	<path class="st3" d="M134.6,304.9l0.3,6.7c0.1,1.4-0.7,2.8-1.9,3.5c-1.1,0.6-2.8,1.1-5,0.8c-4.9-0.8-5.3-2.2-5.6-8.8
		C122.1,300.3,134.6,304.9,134.6,304.9z"/>
	<path class="st5" d="M192.1,182.3c-1.9-31-33.6,4.6-33.6,4.6l-21.7,21.3l-19.5,21.5c-3.8,4.2-5.6,9.8-4.9,15.5l7.9,60.2
		c0.4,3,2.9,5.2,5.9,5.1c0.8,0,1.8-0.1,2.9-0.3c7-1.1,6.5-7.8,6.5-7.8l-1.4-56.3l41-24.7C175.3,221.3,194,213.4,192.1,182.3z"/>
	<path class="st3" d="M150,235.4l-5.8-2.1c-0.1,0-9.9,9.5-9.8,12.8l4.4,1.4l11-10.7L150,235.4z"/>
	<path class="st3" d="M183.8,246.5c0,0,24.4-13.9,27.3-19.8c1.1-2.3,2.9-4.7-4.2-8.1l-32.5,23.2l1.4,8L183.8,246.5z"/>
	<path class="st5" d="M215.7,194.3c-2-31-33.6,4.6-33.6,4.6l-21.7,21.3l-19.5,21.5c-3.8,4.2-5.6,9.8-4.9,15.5l7.9,60.2
		c0.4,3,2.9,5.2,5.9,5.1c0.8,0,1.8-0.1,2.9-0.3c7-1.1,6.5-7.8,6.5-7.8l-1.4-56.3l41-24.7C198.9,233.3,217.6,222.7,215.7,194.3z"/>
	<path class="st8" d="M196.9,94.6c24,10,23.5,24.2,23.5,24.2s-4.7,52.1-3.1,86.9c0.7,14.5-77.2,15.6-65.6-23.1
		c13.7-45.7,8.6-82.8,15-88.3C173.2,88.5,190.7,92,196.9,94.6z"/>
	<linearGradient id="SVGID_1_" gradientUnits="userSpaceOnUse" x1="180.4595" y1="104.0666" x2="204.8966" y2="104.0666">
		<stop  offset="0" style="stop-color:#F5DBCA"/>
		<stop  offset="1" style="stop-color:#EDBA96"/>
	</linearGradient>
	<path class="st9" d="M204.7,107.2c-1.3,4.9-7.6,7.5-14.3,5.7s-11-7-9.7-11.9c1.3-4.9,7.6-7.5,14.3-5.7
		C201.6,96.9,205.9,102.3,204.7,107.2z"/>
	<path class="st1" d="M194.5,114.6c-1.4,0-2.9-0.2-4.3-0.6c-3.4-0.9-6.4-2.7-8.4-5.2c-2.1-2.5-2.8-5.4-2.1-8.2
		c1.4-5.5,8.4-8.4,15.7-6.6c3.4,0.9,6.4,2.7,8.4,5.2c2.1,2.5,2.8,5.4,2.1,8.2C204.7,111.8,200,114.6,194.5,114.6z M190.8,95.8
		c-4.5,0-8.2,2.1-9.1,5.4c-0.5,2,0.1,4.2,1.7,6.1c1.7,2.1,4.2,3.6,7.2,4.4c6,1.5,11.8-0.7,12.9-4.9c0.5-2-0.1-4.2-1.7-6.1
		c-1.7-2.1-4.2-3.6-7.2-4.4C193.4,96,192.1,95.8,190.8,95.8z"/>
	<path class="st10" d="M187.3,93.5c0,0,0.2,1-0.2,8.6c-0.1,2.4,8.3,4.6,10.4,2.5c2.2-2.2,1.3-4.4,1.8-12.6
		C199.9,83.8,187.3,93.5,187.3,93.5z"/>
	<path class="st11" d="M199.3,92c0,0-2.1,7.6-12.2,10.5l0.2-6.9L199.3,92z"/>
	<linearGradient id="SVGID_2_" gradientUnits="userSpaceOnUse" x1="169.3804" y1="77.3907" x2="206.3841" y2="77.3907">
		<stop  offset="0" style="stop-color:#F5DBCA"/>
		<stop  offset="1" style="stop-color:#EDBA96"/>
	</linearGradient>
	<path class="st12" d="M205.8,72.8c2.6,9.9-3.4,20-13.3,22.5c-9.9,2.6-20-3.4-22.5-13.3c-2.6-9.9,3.4-20,13.3-22.5
		C193.1,56.9,203.2,62.9,205.8,72.8z"/>
	<path class="st13" d="M172.8,79.2c0,0,8.9-3.8,16.7-2.2c1.8,0.4,3.5,1.3,4.7,2.8c0.4,0.5,0.9,0.9,1.4,1c1.4,0.3,3.6-5.4,6.3-5.5
		c2.7-0.1,4.5,1.8,2.3,5.3c-2.2,3.5-1.5,7.5-0.4,8c1,0.6,11.7-7.7,2.3-26.4c-9.5-18.8-33.5-8.7-37.3-4.9c0,0-3.9,3.4-7.1,0.4
		C161.6,57.7,158,84.6,172.8,79.2z"/>
	<linearGradient id="SVGID_3_" gradientUnits="userSpaceOnUse" x1="176.2395" y1="177.6152" x2="223.4408" y2="177.6152">
		<stop  offset="0" style="stop-color:#F5DBCA"/>
		<stop  offset="1" style="stop-color:#EDBA96"/>
	</linearGradient>
	<path class="st14" d="M207,156.8v14.1c0,1.6-0.7,3.2-1.9,4.2l-28.9,26.4l3.3,5l38.2-27.7c1.8-1.3,2.9-3.3,3.2-5.5l2.6-24.5
		L207,156.8z"/>
	<path class="st8" d="M218.5,111.7c0,0,8.8,13.2,12,47.9c0,0-15,4.8-23.5,2.1C198.5,158.9,218.5,111.7,218.5,111.7z"/>
	<path class="st15" d="M205.4,128.4c0,0-3.4,18.4-3.6,27c-0.1,2.4,1.4,4.5,3.6,5.3l0,0V128.4z"/>
	<path class="st16" d="M197.9,219.7l-6.4-0.8l-41.2-23.8c-1.3-0.8-3.6-0.7-5.2,0.2l-29.2,16.9l-3.9-0.5v3.8l0,0c0,0.5,0.3,1,0.9,1.4
		l46.7,27c1.3,0.8,3.6,0.7,5.2-0.2l31.8-18.4c0.9-0.5,1.3-1.1,1.3-1.7h0V219.7z"/>
	<path class="st17" d="M166.9,204.7L164,203h-32.2l-15.9,9.2l-3.9-0.5v3.8l0,0c0,0.5,0.3,1,0.9,1.4l46.7,27c0.7,0.4,1.7,0.6,2.7,0.5
		L166.9,204.7z"/>
	<path class="st18" d="M113.8,211.9l-1.7-0.2v3.8l0,0c0,0.5,0.3,1,0.9,1.4l0.8,0.5V211.9z"/>
	<path class="st17" d="M160.1,244.1c1.3,0.5,3,0.4,4.4-0.3v-6.5h-4.4V244.1z"/>
	<path class="st19" d="M197,218.4l-46.7-27c-1.3-0.8-3.6-0.7-5.2,0.2L113.3,210c-1.5,0.9-1.7,2.2-0.4,3l46.7,27
		c1.3,0.8,3.6,0.7,5.2-0.2l31.8-18.4C198.2,220.5,198.3,219.2,197,218.4z"/>
	<path class="st20" d="M146.9,190.8l-0.5,3.2c-0.4,2.7-0.3,5.5,0.2,8.3l0.6,2.8c0.3,1.6,1.6,2.8,3.2,3.1l0,0
		c1.3,0.2,2.4-0.7,2.6-1.9l0.8-6.9c0,0,1.8,2.3,2.6,2.3c0.9,0-1-6.9-2.9-10.8C151.6,187,146.9,190.8,146.9,190.8z"/>
	<linearGradient id="SVGID_4_" gradientUnits="userSpaceOnUse" x1="143.8952" y1="160.3615" x2="162.7767" y2="160.3615">
		<stop  offset="0" style="stop-color:#F5DBCA"/>
		<stop  offset="1" style="stop-color:#EDBA96"/>
	</linearGradient>
	<path class="st21" d="M162.8,139.5l-5,9.9c-1.2,2.3-1.9,4.9-2.1,7.5l-2.2,34l-6.6-0.2l-3-38.1c-0.1-1.2,0-2.4,0.2-3.5l3.4-19.3
		L162.8,139.5z"/>
	<path class="st16" d="M158.1,242.6l-3.9-5.1L113,213.6c-1.3-0.8-2.4-2.8-2.4-4.6l0-33.7l-2.4-3.1l2.2-1.3l0,0
		c0.4-0.3,1-0.3,1.6,0.1l46.7,27c1.3,0.8,2.4,2.8,2.4,4.6l0,36.7c0,1-0.3,1.7-0.9,2h0L158.1,242.6z"/>
	<path class="st16" d="M129.6,223.2l-2.9-1.7l-16.1-27.9l0-18.3l-2.4-3.1l2.2-1.3l0,0c0.4-0.3,1-0.3,1.6,0.1l46.7,27
		c0.7,0.4,1.3,1.2,1.8,2.1L129.6,223.2z"/>
	<path class="st16" d="M109.3,173.6l-1.1-1.4l2.2-1.3l0,0c0.4-0.3,1-0.3,1.6,0.1l0.8,0.5L109.3,173.6z"/>
	<path class="st16" d="M159.2,198.3c1,0.8,1.8,2.5,2,3.9l-4.6,2.6l-2.2-3.8L159.2,198.3z"/>
	<path class="st8" d="M156.6,199.3l-46.7-27c-1.3-0.8-2.4,0-2.4,1.8l0,36.7c0,1.8,1.1,3.8,2.4,4.6l46.7,27c1.3,0.8,2.4,0,2.4-1.8
		l0-36.7C158.9,202.1,157.9,200.1,156.6,199.3z"/>
	<path class="st20" d="M179.5,206.5l-0.7,1.6c-0.9,1.8-2.2,3.3-3.9,4.3l-4.6,2.9c-1.4,0.9-3.3,1-4.7,0.1c-0.1,0-0.1-0.1-0.2-0.1
		c-1.5-0.9-1.6-3-0.4-4.3l4.8-5c0,0-2.7,2.1-3.5,1.2c-0.6-0.6,2.6-3.6,5.1-3.7c2.5-0.1,4.8-2,4.8-2L179.5,206.5z"/>
	<path class="st8" d="M167.2,94c0,0-17.8,19.3-24.9,37.1c0,0,6.1,10.9,21,15.2S167.2,94,167.2,94z"/>
	<path class="st15" d="M159.9,145.2l2.9-27.8l-6.8,26.1C157.2,144.1,158.5,144.7,159.9,145.2z"/>
	<path class="st1" d="M180.5,90.1l-4.8-1.3c0,0,2.3,3.6,5.6,4.5c3.3,0.9,3.8-1.9,3.8-1.9L180.5,90.1z"/>
</g>
</svg>
