<?xml version="1.0" encoding="UTF-8"?><!DOCTYPE svg PUBLIC "-//W3C//DTD SVG 1.1//EN" "http://www.w3.org/Graphics/SVG/1.1/DTD/svg11.dtd"><svg xmlns="http://www.w3.org/2000/svg"><symbol id="arrow" viewBox="0 0 8.6 15"><style>.st0{fill:#a8a8a8}</style><path class="st0" d="M8.2 8.2l-6.4 6.4c-.4.4-1.1.4-1.5 0-.4-.4-.4-1.1 0-1.5L6 7.5.3 1.8C-.1 1.4-.1.7.3.3c.4-.4 1.1-.4 1.5 0l6.4 6.4c.2.3.3.5.3.8 0 .3-.1.5-.3.7zm0 0"/></symbol><symbol id="ball" viewBox="0 0 25 25"><style>.st0{fill:#a8a8a8}</style><path class="st0" d="M11.3 11c.3 0 .5-.2.5-.5s-.2-.5-.5-.5-.5.2-.5.5.3.5.5.5z"/><path class="st0" d="M12.5 0C5.8 0 0 5.7 0 12.5S5.8 25 12.5 25c5.3 0 10.2-3.6 11.9-8.6.1-.1.1-.2.1-.3.4-1.2.6-2.4.6-3.6C25 5.7 19.2 0 12.5 0zM21 20.1h-3.7l-2-3.7 2-3.4h4.3l1.8 3.1c-.5 1.5-1.3 2.8-2.4 4zm-3.7 1H20c-1.2 1.1-2.6 1.9-4.1 2.4l1.4-2.4zm-6.8-5.2l-2-3.4 2-3.4h4l2 3.4-2 3.4h-4zm-2.8 5.2l1.4 2.4C7.6 23 6.2 22.2 5 21.1h2.7zm0-1H4c-1.1-1.2-1.9-2.5-2.4-4L3.4 13h4.3l2 3.4-2 3.7zM1 12.5c0-.8.1-1.5.2-2.3l1.3 2.3-1.3 2.3c-.1-.8-.2-1.5-.2-2.3zm3-7.6h3.7l2 3.7-2 3.4H3.4L1.6 8.9c.5-1.5 1.3-2.8 2.4-4zm3.7-1H5C6.2 2.8 7.6 2 9.1 1.5L7.7 3.9zm9.6 0l-1.4-2.4c1.5.5 2.9 1.3 4.1 2.4h-2.7zm0 1H21c1.1 1.2 1.9 2.5 2.4 4L21.6 12h-4.3l-2-3.4 2-3.7zm5.1 7.6l1.3-2.3c.2.8.2 1.5.2 2.3 0 .8-.1 1.5-.2 2.3l-1.3-2.3zM14.6 1.2l1.9 3.2-2 3.7h-4l-2-3.7 1.9-3.2c.7-.2 1.4-.2 2.1-.2.7 0 1.4 0 2.1.2zm-4.2 22.6l-1.9-3.2 2-3.7h4l2 3.7-1.9 3.2c-.7.2-1.4.2-2.1.2-.7 0-1.4 0-2.1-.2z"/><path class="st0" d="M10.8 12.5l.2-.3c.1-.2.1-.5-.2-.7-.2-.1-.5-.1-.7.2l-.3.6c-.1.2-.1.3 0 .5l1.1 2c.1.2.4.3.7.2.2-.1.3-.4.2-.7l-1-1.8z"/></symbol><symbol id="bear" viewBox="0 0 25 25"><style>.st0{fill:#a8a8a8}</style><path class="st0" d="M14.5 4.7c-.3 0-.5.2-.5.5s.2.5.5.5.5-.2.5-.5c-.1-.3-.3-.5-.5-.5zm-4 0c-.3 0-.5.2-.5.5s.2.5.5.5.5-.2.5-.5-.2-.5-.5-.5zm0 10.5c-.3 0-.5.2-.5.5s.2.5.5.5.5-.2.5-.5c0-.2-.2-.5-.5-.5zm0 0"/><path class="st0" d="M19.8 7.7c1.7-.4 3-2 3-3.8 0-2.1-1.8-3.9-4-3.9-1 0-1.9.4-2.6 1-1.1-.7-2.4-1-3.7-1S9.9.3 8.8 1C8 .4 7.1 0 6.2 0c-2.2 0-4 1.8-4 3.9 0 1.8 1.3 3.4 3 3.8.2 1.6.9 3.1 2.1 4.2-2.1 1.1-3.6 3.8-3.6 6.3 0 .8.2 1.7.5 2.4v.5C4.2 23.2 6 25 8.1 25c.8 0 1.6-.3 2.3-.8.7.2 1.4.3 2.1.3.7 0 1.4-.1 2.1-.3.7.5 1.5.8 2.3.8 2.2 0 3.9-1.8 3.9-3.9v-.5c.3-.8.5-1.6.5-2.4 0-2.5-1.5-5.1-3.6-6.3 1.2-1.1 1.9-2.6 2.1-4.2zm-.4-3c-.2-.6-.5-1.2-.9-1.7.1 0 .2-.1.4-.1.5 0 1 .4 1 1-.1.3-.2.6-.5.8zM18.8 1c1.6 0 2.9 1.3 2.9 2.9 0 1.3-.8 2.4-2 2.8 0-.3-.1-.7-.1-1 .7-.3 1.1-1 1.1-1.8 0-1.1-.9-2-2-2-.4 0-.7.1-1 .3-.2-.2-.5-.5-.8-.7.7-.3 1.3-.5 1.9-.5zM5.2 6.7c-1.1-.4-2-1.5-2-2.8 0-1.6 1.3-2.9 3-2.9.6 0 1.3.2 1.8.6-.4.2-.6.4-.8.6-.3-.1-.7-.2-1-.2-1.1 0-2 .9-2 2 0 .8.4 1.4 1.1 1.8-.1.2-.1.5-.1.9zm0-2.8c0-.5.4-1 1-1 .1 0 .2 0 .4.1-.5.5-.8 1.1-1 1.7-.3-.2-.4-.5-.4-.8zm-.5 14.3c0-2.3 1.5-4.8 3.5-5.6.1.1.2.2.4.2-1.2 1-2 2.5-2.3 4.1-.6.5-1.2 1.2-1.5 2-.1-.3-.1-.5-.1-.7zm5.3 5.1c-.5.5-1.2.7-1.9.7-1.6 0-2.9-1.3-2.9-2.9 0-1.6 1.3-3.9 2.9-3.9 1.6 0 2.9 2.3 2.9 3.9 0 .9-.3 1.7-1 2.2zm2.5.2c-.4 0-.9 0-1.3-.1.5-.7.8-1.5.8-2.3 0-2.1-1.7-4.9-3.9-4.9-.2 0-.5 0-.7.1.4-1.2 1.1-2.3 2.1-3 1 .4 2 .6 3 .6s2.1-.2 3-.6c1 .7 1.7 1.8 2.1 3-.2-.1-.5-.1-.7-.1-2.2 0-3.9 2.8-3.9 4.9 0 .4.1.7.2 1.1.1.4.3.9.6 1.2-.4.1-.9.1-1.3.1zm4.4.5c-.7 0-1.4-.2-1.9-.7-.4-.4-.8-.9-.9-1.4-.1-.2-.1-.5-.1-.8 0-1.6 1.4-3.9 2.9-3.9 1.6 0 2.9 2.3 2.9 3.9S18.5 24 16.9 24zm3.4-5.8v.7c-.4-.8-.9-1.5-1.5-2-.3-1.6-1.1-3-2.3-4.1.1-.1.2-.2.4-.2 1.9.8 3.4 3.2 3.4 5.6zM12.5 13c-3.4 0-6.1-2.6-6.3-5.6v-.2C6 3.8 8.9 1 12.5 1c2.9 0 5.4 2 6.1 4.5.3 1.1.2 1.8.2 1.9-.2 3-2.9 5.6-6.3 5.6zm0 0"/><path class="st0" d="M14.5 10.1c-.3 0-.5.2-.5.5s-.2.5-.5.5c-.1 0-.3-.1-.3-.1-.2-.2-.2-.3-.2-.5v-1c.9-.2 1.5-.7 1.5-1.4 0-.8-.9-1.5-2-1.5s-2 .6-2 1.5c0 .7.6 1.3 1.5 1.4v1c0 .3-.2.5-.5.5-.1 0-.3-.1-.3-.1-.1-.1-.1-.2-.1-.3 0-.3-.2-.5-.5-.5s-.5.2-.5.5c0 .4.2.8.4 1 .3.3.6.4 1 .4s.7-.1 1-.4c.3.2.6.4 1 .4.8 0 1.5-.7 1.5-1.5-.1-.2-.3-.4-.5-.4zm-3-2c0-.2.4-.5 1-.5s1 .3 1 .5-.4.5-1 .5-1-.3-1-.5zm5.4 10.1c-.9 0-2 1.7-2 2.9 0 1.1.9 2 2 2s2-.9 2-2c-.1-1.2-1.1-2.9-2-2.9zm0 3.9c-.5 0-1-.4-1-1 0-.8.6-1.7 1-1.9.3.2 1 1.1 1 1.9 0 .5-.5 1-1 1zm-8.8-3.9c-.9 0-2 1.7-2 2.9 0 1.1.9 2 2 2s2-.9 2-2c0-1.2-1.1-2.9-2-2.9zm0 3.9c-.5 0-1-.4-1-1 0-.9.7-1.8 1-1.9.3.2 1 1.1 1 1.9 0 .5-.5 1-1 1zm6.4-6.9h-2c-.3 0-.5.2-.5.5s.2.5.5.5h2c.3 0 .5-.2.5-.5s-.3-.5-.5-.5zm0 0"/></symbol><symbol id="business" viewBox="0 0 25 25"><style>.st0{fill:#a8a8a8}</style><path class="st0" d="M23 23.1H2c-1.1 0-2-.9-2-2v-14c0-1.1.9-2 2-2h21c1.1 0 2 .9 2 2v14c-.1 1.2-.9 2-2 2zM2 6.3c-.6 0-1 .4-1 .9v14c0 .5.4.9.9.9H23c.5 0 .9-.4.9-.9v-14c0-.5-.4-.9-.9-.9H2z"/><path class="st0" d="M16.9 6.3c-.3 0-.5-.2-.5-.5V3.5c0-.4-.3-.6-.6-.6H9.3c-.4 0-.6.3-.6.6v2.2c0 .3-.2.5-.5.5s-.5-.2-.5-.5V3.5c0-.9.8-1.6 1.6-1.6h6.4c.9 0 1.6.8 1.6 1.6v2.2c.1.3-.2.6-.4.6zm7.5 7.9H.5m14.4 2.4H10c-.3 0-.5-.2-.5-.5v-3.8c0-.3.2-.5.5-.5h4.9c.3 0 .5.2.5.5v3.8c.1.3-.1.5-.5.5zm-4.4-1h3.9v-2.8h-3.9v2.8z"/><path class="st0" d="M9.8 13.7H.5c-.3 0-.5.2-.5.5s.2.5.5.5h9.3v-1zm14.6 0H15v1h9.4c.3 0 .5-.2.5-.5s-.2-.5-.5-.5z"/></symbol><symbol id="car" viewBox="0 0 25 25"><style>.st0{fill:#a8a8a8}</style><path class="st0" d="M22.5 19.2h-2.2c-.8 0-1.5-.7-1.5-1.5v-1.9H4.1v1.9c0 .8-.7 1.5-1.5 1.5H.5c-.8 0-1.5-.7-1.5-1.5v-9c0-.6.2-1.1.6-1.4l1.1-1-1.1-.4c-.3-.1-.5-.3-.6-.6 0-.3 0-.6.1-.8l.2-.5c.2-.4.5-.7 1-.7h2.1L3 .5c.3-1.1 1.3-1.9 2.5-1.9h12c1.2 0 2.2.8 2.5 1.9l.8 2.9h2.1c.4 0 .8.3 1 .7l.2.4c-.1.2-.1.5-.2.8s-.3.5-.6.6l-1.1.4 1.1 1c.5.3.7.8.7 1.4v9c0 .8-.7 1.5-1.5 1.5zm-2.9-3.3v1.9c0 .4.3.7.7.7h2.2c.4 0 .7-.3.7-.7v-1.9h-3.6zm-19.9 0v1.9c0 .4.3.7.7.7h2.2c.4 0 .7-.3.7-.7v-1.9H-.3zm19.2-.8h4.4V8.7c0-.3-.1-.7-.4-.9l-2-1.8 2.2-.8c.1 0 .2-.1.2-.2v-.3l-.2-.4c-.1-.1-.2-.2-.3-.2h-2.6L19.3.7c-.2-.8-1-1.4-1.8-1.4h-12c-.8 0-1.6.6-1.8 1.4l-.9 3.4H.2c-.1 0-.2.1-.3.2l-.2.4V5c0 .1.1.2.2.2l2.2.8-2 1.8c-.2.2-.4.6-.4.9v6.4h19.2zm-2.5-1.5H6.6l1-4c.2-.6.8-1.1 1.4-1.1h4.9c.7 0 1.3.5 1.4 1.1l1.1 4zm-8.9-.7h7.9l-.8-3.1c-.1-.3-.4-.6-.7-.6H9c-.3 0-.6.2-.7.6l-.8 3.1zm-5.6-.4c-.2 0-.3-.1-.4-.1-.2-.1-.3-.4-.3-.6v-.4c0-.4.3-.7.7-.7h1.5c.4 0 .7.3.7.7 0 .3-.2.6-.5.7l-1.5.4h-.2zm0-1.1v.4l1.5-.3-1.5-.1zm19.2 1.1h-.2l-1.5-.4c-.3-.1-.5-.4-.5-.7 0-.4.3-.7.7-.7h1.5c.4 0 .7.3.7.7v.4c0 .2-.1.4-.3.6-.1.1-.3.1-.4.1zm-1.5-1.1l1.5.4v-.4h-1.5zm-2.4-1.1c-.1 0-.3-.1-.4-.2-.1-.1-.2-.3-.2-.4v-.6c0-.6.5-1.1 1.1-1.2l3.3-.4c.2 0 .4 0 .5.2.2.1.2.3.2.5v.7c0 .7-.5 1.3-1.2 1.3l-3.3.1zm3.9-2.2l-3.2.4c-.2 0-.5.2-.5.5v.5l3.2-.1c.3 0 .5-.3.5-.6v-.7zM5.8 10.3l-3.3-.1c-.7 0-1.2-.6-1.2-1.3v-.8c0-.2.1-.4.2-.5s.3-.2.5-.2l3.3.4c.6.1 1.1.6 1.1 1.2v.7c0 .2-.1.3-.2.4-.2.2-.3.2-.4.2zM1.9 8.1v.7c0 .3.2.6.5.6l3.2.1v-.4c0-.3-.2-.5-.5-.5l-3.2-.5zm18-2.2H3.1L4.3.8C4.4.1 5-.3 5.6-.3h11.7c.7 0 1.2.4 1.4 1.2l1.2 5zm-2-.7h1.2L18.2 1c-.2-.7-.6-.7-.8-.7H5.6c-.1 0-.5 0-.8.7l-.9 4.2h1.2l.1-.3c.1-.5.6-.8 1-.8H9c.5 0 .9.4 1 .8l.1.3h2.7l.1-.3c.1-.5.6-.8 1-.8h2.8c.5 0 .9.4 1 .8l.2.3zm-4.3 0h3.5v-.1c0-.1-.2-.3-.3-.3H14c-.1 0-.3.1-.3.3l-.1.1zm-7.7 0h3.5v-.1c0-.1-.2-.3-.3-.3H6.2c-.1 0-.3.1-.3.4z" transform="translate(1 3)" id="Page-1"/></symbol><symbol id="chair" viewBox="0 0 25 25"><style>.st0{fill:#a8a8a8}</style><path class="st0" d="M12.5 2.3c.1 0 .3-.1.3-.1.1-.1.2-.3.2-.4s-.1-.3-.1-.3c-.1-.1-.2-.1-.3-.1s-.3.1-.3.1c-.2.1-.3.2-.3.3 0 .1.1.3.1.3.1.1.3.2.4.2z"/><path class="st0" d="M24.6 11.9c.3-.3.4-.8.4-1.2 0-1.1-.9-2.1-2.1-2.1-.6 0-1.2.3-1.5.7l.8-2.5c.4-1.3.2-2.7-.6-3.7-.8-1.1-2-1.7-3.4-1.7h-3.6c-.3 0-.5.2-.5.5s.2.5.5.5h3.6c1 0 2 .5 2.6 1.3s.8 1.9.5 2.9l-1.1 3.5H4.8l-1-3.6c-.3-1-.1-2 .5-2.9.6-.8 1.6-1.3 2.6-1.3h3.5c.3 0 .5-.2.5-.5s-.2-.5-.5-.5H6.8c-1.3 0-2.5.6-3.3 1.7s-1 2.4-.6 3.7l.8 2.5c-.5-.3-1-.6-1.6-.6-1.2 0-2.1.9-2.1 2 0 .5.2.9.4 1.2.5 1.6.7 3.3.7 5V23c0 .1.1.3.1.3.1.1.2.1.3.1h2c.3 0 .5-.2.5-.5V21h16.8v2.1c0 .3.2.5.5.5h2c.1 0 .3-.1.3-.1.1-.1.1-.2.1-.3V17c.1-1.8.4-3.5.9-5.1zm-2.7-1.3c0-.6.5-1.1 1.1-1.1s1.1.5 1.1 1.1-.5 1.1-1.1 1.1c-.3 0-.5.2-.5.5s.2.5.5.5h.4c-.3 1.4-.5 2.8-.5 4.3v3.2h-1v-9.6zm-2.1.3c.6 0 1.1.5 1.1 1.1v2c0 .6-.5 1.1-1.1 1.1H5.2c-.6 0-1-.4-1.1-1h4.5c.3 0 .5-.2.5-.5s-.2-.5-.5-.5H4.1V12c0-.6.5-1.1 1.1-1.1h14.6zM1 10.6c0-.6.5-1.1 1.1-1.1s1.1.5 1.1 1.1V20h-1v-3.2c0-1.4-.2-2.9-.5-4.3h.4c.3 0 .5-.2.5-.5s-.2-.5-.5-.5c-.6.2-1.1-.3-1.1-.9zm1.1 12.1V21h1v1.7h-1zm2-5.7c0-.6.5-1.1 1.1-1.1h14.6c.6 0 1.1.5 1.1 1.1v3H4.1v-3zm17.8 5.7V21h1v1.7h-1z"/><path class="st0" d="M10.4 14c.1 0 .3-.1.3-.1.1-.1.1-.2.1-.3s-.1-.3-.1-.3c-.1-.1-.2-.1-.3-.1s-.3.1-.3.1c-.1.1-.1.2-.1.3s.1.3.1.3c0 .1.2.1.3.1z"/></symbol><symbol id="devices" viewBox="0 0 25 25"><style>.st0{fill:#a8a8a8}</style><path class="st0" d="M15.4 21.3c0-.2-.2-.4-.4-.4h-.4v-2.5h2.1v-.8H1.2c-.2 0-.4-.2-.4-.4V2.9c0-.2.2-.4.4-.4h20c.2 0 .4.2.4.4v4.2h.8V2.9c0-.7-.6-1.2-1.2-1.2h-20C.6 1.7 0 2.2 0 2.9v14.2c0 .7.6 1.2 1.2 1.2h6.7v2.5h-.4c-.2 0-.4.2-.4.4v1.3H5.4v.8h11.7v-.8h-1.7v-1.2zm-6.6-3h5v2.5h-5v-2.5zm-.9 4.2v-.8h6.7v.8H7.9z"/><path class="st0" d="M1.7 14.2h15v.8h-15zm19.1-7.5V4.2c0-.5-.4-.8-.8-.8H2.5c-.5-.1-.8.3-.8.8v8.3h.8V4.2H20v2.5h.8z"/><path class="st0" d="M5 5.8V5H3.8c-.3 0-.5.2-.5.4v1.3h.8v-.9H5zm18.8 2.1h-5c-.7 0-1.3.6-1.3 1.3V20c0 .7.6 1.3 1.3 1.3h5c.7 0 1.3-.6 1.3-1.3V9.2c-.1-.7-.7-1.3-1.3-1.3zm-5 .9h5c.2 0 .4.2.4.4v.4h-5.8v-.4c-.1-.3.1-.4.4-.4zm5.4 1.6v7.5h-5.8v-7.5h5.8zm-.4 10h-5c-.2 0-.4-.2-.4-.4v-1.3h5.8V20c0 .2-.2.4-.4.4z"/><path class="st0" d="M20.8 19.2h.8v.8h-.8zm0-5.9h.8v.8h-.8zm1.7 0h.8v.8h-.8zm-3.3 0h.8v.8h-.8z"/></symbol><symbol id="job" viewBox="0 0 25 25"><style>.st0{fill:#a8a8a8}</style><path class="st0" d="M22 5.9c.2 0 .3 0 .4-.1l2.5-2.5c.1-.1.1-.3.1-.5-.1-.2-.2-.3-.4-.3l-1.9-.2-.2-1.9c0-.2-.1-.3-.3-.4-.2 0-.4 0-.5.1l-2.5 2.5c-.1.2-.2.3-.1.4l.2 2-.5.5c-1.7-1.6-4-2.6-6.6-2.7v-.9c0-.3-.2-.5-.5-.5s-.5.2-.5.5v.9c-5.3.2-9.6 4.6-9.8 10H.5c-.3 0-.5.2-.5.4 0 .3.2.5.5.5h.9c.2 5.4 4.6 9.7 9.9 9.9v.9c0 .3.2.5.5.5s.5-.2.5-.5v-.9c5.4-.2 9.7-4.6 9.9-9.9h.9c.3 0 .5-.2.5-.5s-.2-.5-.5-.5h-.9c-.1-2.5-1.1-4.8-2.7-6.6l.5-.5 2 .3zm-.3-4.4l.1 1.3c0 .2.2.4.4.4l1.3.1L21.8 5l-1.6-.2-.2-1.6 1.7-1.7zm-.4 11.3h-.7c-.3 0-.5.2-.5.5s.2.5.5.5h.7c-.2 4.9-4.1 8.8-9 9V22c0-.3-.2-.5-.5-.5s-.5.2-.5.5v.7c-4.9-.2-8.8-4.1-9-9H3c.3 0 .5-.2.5-.5s-.2-.5-.5-.5h-.7c.2-4.9 4.1-8.8 9-9v.7c0 .3.2.5.5.5s.5-.2.5-.5v-.7c2.3.1 4.3 1 5.9 2.4l-1.4 1.4c-1.3-1.2-3.1-1.9-5-1.9-4.1 0-7.5 3.4-7.5 7.5s3.4 7.5 7.5 7.5 7.5-3.4 7.5-7.5c0-1.9-.7-3.6-1.9-5l1.4-1.4c1.4 1.7 2.3 3.8 2.5 6.1zm-9.9.8c.1.1.2.1.3.1.1 0 .2 0 .3-.1l2.5-2.5c.5.6.8 1.4.8 2.2 0 2-1.6 3.6-3.6 3.6s-3.6-1.6-3.6-3.6 1.6-3.6 3.6-3.6c.8 0 1.6.3 2.2.8L11.4 13c-.1.1-.1.4 0 .6zm3.3-3.9c-.8-.6-1.8-1-2.9-1-2.5 0-4.6 2-4.6 4.6 0 2.5 2 4.6 4.6 4.6 2.5 0 4.6-2 4.6-4.6 0-1.1-.4-2.1-1-2.9L16.8 9c1 1.2 1.6 2.7 1.6 4.3 0 3.6-2.9 6.6-6.6 6.6-3.6 0-6.6-2.9-6.6-6.6 0-3.6 2.9-6.6 6.6-6.6 1.6 0 3.1.6 4.3 1.6l-1.4 1.4zm0 0"/></symbol><symbol id="key" viewBox="0 0 25 25"><style>.st0{fill:#a8a8a8}</style><path class="st0" d="M24.9 9.5l-.6-.6V3.7c0-2.1-1.7-3.7-3.7-3.7-.8 0-1.6.3-2.3.8C15.5-.6 12-.1 9.7 2.2c-2.5 2.5-2.8 6.2-1.1 9.1L5.9 14H4.7c-.3 0-.5.2-.5.5v.9h-.9c-.3 0-.5.2-.5.5v.9h-.9c-.3 0-.5.2-.5.5v.9H.5c-.1 0-.3.1-.3.1-.1.2-.2.3-.2.4v3.2c0 .3.2.5.5.5h3.2c.1 0 .3-.1.3-.1l5.4-5.4c.2-.2.2-.5 0-.7s-.5-.2-.7 0l-5.2 5.2H1v-2.2h.9c.3 0 .5-.2.5-.5v-.9h.9c.3 0 .5-.2.5-.5v-.9h.9c.3 0 .5-.2.5-.5V15h.9c.1 0 .3-.1.3-.1L9.2 12c.2.2.3.4.5.6 1.3 1.3 3.1 2.1 4.9 2.2V23c0 1.1.9 2.1 2.1 2.1h6.2c1.1 0 2.1-.9 2.1-2.1V9.9c0-.2-.1-.3-.1-.4zM20.5 1c1.5 0 2.8 1.2 2.8 2.8V8l-.9-1c-.1-1.8-.8-3.5-2.2-4.8-.3-.3-.7-.6-1-.9.4-.2.8-.3 1.3-.3zM10.4 2.9C11.6 1.6 13.3 1 15 1c.9 0 1.7.2 2.5.5-.3.4-.6.9-.7 1.5-.4.1-.8.3-1.1.6-.8.8-.8 2.2 0 3.1.4.4 1 .6 1.5.6.6 0 1.1-.2 1.5-.6s.6-1 .6-1.5-.1-1.2-.5-1.6c-.3-.3-.6-.5-1-.6.1-.4.3-.8.6-1.1.4.3.8.6 1.1.9 1.2 1.2 1.9 2.8 1.9 4.5s-.7 3.3-1.9 4.5c-1.3 1.3-2.9 1.9-4.5 1.9s-3.3-.6-4.5-1.9c-2.6-2.4-2.6-6.4-.1-8.9zm6.8 2.7c.3 0 .5-.2.5-.5V4c.1.1.2.1.4.2.2.2.3.5.3.8s-.1.7-.3 1c-.5.5-1.2.5-1.7 0s-.5-1.2 0-1.7c.1-.1.2-.2.3-.2v1.1c.1.2.3.4.5.4zM24 22.9c0 .6-.5 1.1-1.1 1.1h-6.2c-.6 0-1.1-.5-1.1-1.1v-8.2c1.7-.2 3.3-.9 4.6-2.1 1.2-1.2 1.9-2.7 2.1-4.3L24 10v12.9z"/><path class="st0" d="M12.5 4.2c-.2-.2-.5-.2-.7 0-1.8 1.8-1.8 4.6 0 6.4.1.1.2.1.3.1s.2 0 .3-.1c.2-.2.2-.5 0-.7-1.4-1.4-1.4-3.6 0-5 .3-.2.3-.5.1-.7zm1.5 6.6c-.3-.1-.5.1-.6.3-.1.3.1.5.3.6h.1c.2 0 .4-.1.5-.4.1-.2 0-.4-.3-.5zm7.9 10.6h-4.2c-.3 0-.5.2-.5.5s.2.5.5.5h4.2c.3 0 .5-.2.5-.5s-.2-.5-.5-.5zm-11.5-6.7c-.1 0-.3.1-.3.1-.1.1-.1.2-.1.3s.1.3.1.3c.1.1.2.1.3.1s.3-.1.3-.1c.1-.1.1-.2.1-.3s-.1-.3-.1-.3c-.1 0-.2-.1-.3-.1z"/></symbol><symbol id="nav" viewBox="0 0 15 15"><style>.st0{fill:#a8a8a8}</style><path class="st0" d="M0 6.6l5.6 2.8L8.4 15 15 0"/></symbol><symbol id="necktie" viewBox="0 0 25 25"><style>.st0{fill:#a8a8a8}</style><path class="st0" d="M24.3 8.2L13 4.3v-.7c0-.3-.2-.5-.5-.5-.6 0-1-.5-1-1 0-.6.5-1 1-1 .6 0 1 .5 1 1h1c0-.9-.6-1.8-1.6-2-1.1-.3-2.2.4-2.5 1.5-.3 1.1.4 2.2 1.5 2.5v.2L.7 8.2c-.4.2-.7.6-.7 1.1 0 .6.5 1.1 1.1 1.1h2.4l-.2 5-.1 2.5-.1 3.5c0 .1 0 .2.1.3l2.1 3.1c.1.1.3.2.4.2.2 0 .3-.1.4-.2l1.4-2.2.6-.9c.1-.1.1-.2.1-.3v-1.1l-.4-9.8h.9l-.4 10.8c0 .1 0 .2.1.3l2.1 3.1c.1.1.3.2.4.2.2 0 .3-.1.4-.2l2.1-3.1c.1-.1.1-.2.1-.3L13 10.4h4.1v.5c-.3.1-.7.2-.9.5-.3.3-.6.7-.6 1.1v.2l.9 2.7c.1.3.3.5.6.6v1.2c-.3.1-.5.3-.6.6l-.9 2.7v.2c0 .4.3.8.6 1.1.3.2.6.4.9.5v2.1c0 .3.2.5.5.5h2.1c.3 0 .5-.2.5-.5v-2.1c.3-.1.7-.2.9-.5.3-.3.6-.7.6-1.1v-.2l-.9-2.7c-.1-.3-.3-.5-.6-.6V16c.3-.1.5-.3.6-.6l.9-2.7v-.2c0-.4-.3-.8-.6-1.1-.1-.2-.4-.4-.8-.4v-.5h3.5c.5 0 .9-.3 1.1-.7.2-.7 0-1.4-.6-1.6zm-20 9.5v-.9l2 2.5.9 1.2v.8l-.1.2-2.8-3.8zm1-1.3l-.9-1.1.2-5.9h2.1l.4 9.3-1.8-2.3zm.4 7.1l-1.6-2.3.1-1.9 1 1.2 1.4 1.7-.9 1.3zm5.2 0l-1.6-2.3.6-11.8H12l.4 9.4h-.9v1h1v.5h-1v1h.9l-1.5 2.2zm8.4-13.1h-1v-1h1v1zm0 6.8h-1v-1h1v1zm0 6.8h-1v-1h1v1zm1.5-3.2c-.2.3-.5.5-.9.5l-1.1-.2h-.2l-1.1.2c-.4 0-.7-.2-.9-.5l.9-2.6h2.3l1 2.6zm0-8.3l-.9 2.6h-2.3l-.9-2.6c.2-.3.5-.5.9-.5l1.1.2h.2L20 12c.3 0 .6.2.8.5zm3-3.1h-3.5v-.5c0-.3-.2-.5-.5-.5h-2.1c-.3 0-.5.2-.5.5v.5H13v-.5c0-.3-.2-.5-.5-.5H9.4c-.3 0-.5.2-.5.5v.5h-1v-.5c0-.3-.2-.5-.5-.5H4.2c-.3 0-.5.2-.5.5v.5H1.1L1 9.3v-.1l11.4-3.9 11.4 3.9.1.1c.1 0 0 .1-.1.1zm0 0"/></symbol><symbol id="paw" viewBox="0 0 25 25"><style>.st0{fill:#a8a8a8}.st1{fill:none}</style><path class="st0" d="M18.5 14.2c-1.7-2-3.8-3.1-6-3.1s-4.3 1.1-6 3.1C5 16 4.1 18.3 4.1 20.4c0 1 .3 1.7.9 2.2.6.5 1.4.7 2.2.7.9 0 1.9-.2 2.9-.4.9-.2 1.7-.3 2.3-.3.5 0 1.3.1 2.1.3 1.9.4 4.1.8 5.3-.3.6-.5.9-1.2.9-2.2.2-2.1-.7-4.4-2.2-6.2zm.5 7.3c-.7.6-2.6.3-4.1 0-.9-.2-1.7-.3-2.4-.3-.8 0-1.7.2-2.6.3-1.5.3-3.3.6-4 0-.1-.1-.4-.3-.4-1.1 0-1.7.8-3.7 2.1-5.2 1.4-1.7 3.1-2.6 4.9-2.6 1.7 0 3.5.9 4.9 2.6 1.3 1.5 2.1 3.5 2.1 5.2-.1.7-.4 1-.5 1.1zm0 0"/><path class="st1" d="M0 1.7h25v21.6H0z"/><path class="st0" d="M18.6 3.2c-.6-.9-1.5-1.4-2.4-1.4-.9 0-1.8.5-2.4 1.4-.6.8-.9 1.9-.9 3.1 0 1.2.3 2.2.9 3.1.6.9 1.5 1.4 2.4 1.4.9 0 1.8-.5 2.4-1.4.6-.8.9-1.9.9-3.1 0-1.2-.3-2.3-.9-3.1zm-1.2 5.3c-.2.3-.6.8-1.2.8s-1-.5-1.2-.8c-.4-.6-.6-1.4-.6-2.3s.2-1.6.6-2.2c.2-.3.6-.8 1.2-.8s1 .5 1.2.8c.4.6.6 1.4.6 2.3.1.8-.2 1.7-.6 2.2zm-6.2-5.3c-.6-.9-1.5-1.4-2.4-1.4-.9 0-1.8.5-2.4 1.4-.6.8-.9 1.9-.9 3.1 0 1.2.3 2.2.9 3.1.6.9 1.5 1.4 2.4 1.4.9 0 1.8-.5 2.4-1.4.5-.9.8-2 .8-3.1 0-1.2-.3-2.3-.8-3.1zM10 8.5c-.2.3-.7.8-1.2.8-.6 0-1-.5-1.2-.8-.5-.5-.7-1.4-.7-2.2s.2-1.7.6-2.3c.2-.3.6-.8 1.2-.8s1 .5 1.2.8c.4.6.6 1.4.6 2.3S10.4 8 10 8.5zm14.8 1.8c-.2-.8-.8-1.5-1.5-1.7-.6-.2-1.2-.2-1.8.1-.8.3-1.5 1.2-1.9 2.2-.3.8-.3 1.7-.1 2.5.2.8.8 1.5 1.5 1.7.2.1.5.1.8.1.4 0 .7-.1 1.1-.2.8-.4 1.5-1.2 1.9-2.2.2-.9.3-1.8 0-2.5zm-1.5 2c-.2.6-.6 1.1-1.1 1.4-.2.1-.4.2-.7.1-.6-.2-.9-1.3-.5-2.3.2-.6.6-1.1 1.1-1.4.1-.1.3-.1.4-.1h.3c.7.2.9 1.3.5 2.3zm-18-1.4C5 9.8 4.3 9 3.5 8.7c-.6-.3-1.3-.4-1.9-.2-.7.3-1.2.9-1.5 1.7-.2.8-.1 1.7.1 2.5.4 1 1 1.8 1.9 2.2.3.2.7.2 1.1.2.3 0 .5 0 .8-.1.7-.3 1.2-.9 1.5-1.7.2-.7.1-1.6-.2-2.4zm-1.9 2.8c-.3.1-.5 0-.7-.1-.5-.2-.9-.7-1.1-1.4-.4-1-.1-2.1.5-2.3.3-.1.5 0 .7.1.5.2.9.7 1.1 1.4.4 1 .2 2.1-.5 2.3zm0 0"/></symbol><symbol id="reg" viewBox="0 0 15 15"><style>.st0{fill:#a8a8a8}</style><path class="st0" d="M11.4 3.9c0 2.2-1.8 3.9-3.9 3.9S3.6 6.1 3.6 3.9 5.3 0 7.5 0s3.9 1.8 3.9 3.9zM10 8.4c-.7.5-1.5.9-2.5.9S5.7 8.9 5 8.4C2.3 9.4.4 12 .4 15h14.2c0-3-1.9-5.6-4.6-6.6z"/></symbol><symbol id="search" viewBox="0 0 9.7 10"><style>.st0{fill:#a8a8a8}</style><path class="st0" d="M9.5 9.1L7.1 6.6c.6-.7 1-1.6 1-2.6 0-2.2-1.8-4-4-4S0 1.8 0 4s1.8 4 4 4c.8 0 1.6-.3 2.3-.7l2.4 2.5c.2.1.3.2.4.2.1 0 .3-.1.4-.1.2-.2.2-.6 0-.8zM4 1.1c1.6 0 3 1.3 3 3S5.7 7 4 7 1 5.7 1 4s1.4-2.9 3-2.9z"/></symbol></svg>