<?xml version="1.0" encoding="utf-8"?>
<!-- Generator: Adobe Illustrator 22.0.1, SVG Export Plug-In . SVG Version: 6.00 Build 0)  -->
<svg version="1.1" id="Objects" xmlns="http://www.w3.org/2000/svg" xmlns:xlink="http://www.w3.org/1999/xlink" x="0px" y="0px"
	 viewBox="0 0 380 385" style="enable-background:new 0 0 380 385;" xml:space="preserve">
<style type="text/css">
	.st0{fill:#D2E5F9;}
	.st1{fill:#AFD1F9;}
	.st2{fill:#86B7FC;}
	.st3{fill:#FFFFFF;}
	.st4{fill:#EA4949;}
	.st5{fill:#FF564E;}
	.st6{fill:#F1F2F2;}
	.st7{fill:none;stroke:#FFFFFF;stroke-width:0.4936;stroke-linecap:round;stroke-linejoin:round;stroke-miterlimit:10;}
	.st8{fill:#FFC9AE;}
	.st9{opacity:0.3;fill:#EF9D78;}
	.st10{fill:#1C1016;}
	.st11{fill:#F1F1F2;}
	.st12{fill:#EAA444;}
	.st13{fill:#E6E7E8;}
	.st14{fill:#1E1713;}
	.st15{fill:url(#XMLID_3_);}
	.st16{fill:#F9C9B4;}
	.st17{fill:#332B28;}
	.st18{fill:#2B221E;}
	.st19{fill:url(#XMLID_4_);}
	.st20{fill:url(#XMLID_5_);}
	.st21{fill:#FF6E6E;}
	.st22{fill:#3970B2;}
	.st23{fill:#4D8EFF;}
</style>
<g>
	<g>
		<path id="XMLID_329_" class="st0" d="M240,341.4c-9.1-1.9-17.9-3.8-28.1-2.7c-20.4,2.2-40.8,4.5-61.1,6.8
			c-11.3,1.3-33.4,3.6-44.4,0.3c-47.5-14.6-70.2-70.7-52.4-108c11.6-24.3,9.1-47.3,3.2-69.2c-11.5-42.8,8.4-96.9,46.2-113.3
			c27.6-12,59.7-17.8,87.2-5.6c18.8,8.3,36.4,25.7,46.9,45.2c11.5,21.3,18,37.9,42,44.9c18.6,5.5,38.3,3.7,57.4,6.3
			c8.7,1.2,18.4,4.1,22.6,12.8c6.3,13.1-4,28.1-6.8,42.7c-3.5,18.4,7.6,30.5,14.5,45.4c8.1,17.5,13.6,38.1,4.8,56.7
			c-3.9,8.4-10.4,15.2-17.6,20.8c-28.6,21.7-64.9,23.1-98.2,19.8C250.6,343.7,245.3,342.5,240,341.4z"/>
		<path id="XMLID_467_" class="st1" d="M351.5,299.8c-2.9-11.5-34.5-11.5-37.4-31.6c-5.7-25.9,23-40.2,28.7-66.1
			c3.9-15.7,6.2-44.7-16.2-46.3c-18.5-1.3-34.3,13.6-52.6,16.2c-11.3,1.6-23-2.3-31.8-9.5c-9.9-8.2-12.2-17.6-14.3-29.6
			c-2.2-12.5-4.7-29.2-16.5-36.6c-4.2-2.7-9-4.2-13.8-5.7c-30.3-9.3-61.8-11.7-87.1,11c-9,8.1-16,19.4-15.7,31.5
			c0.5,16.9,14.8,30.6,16.9,47.4c1.4,11.3-3,22.7-10,31.6c-11.6,14.8-27.6,24.9-36.3,42.2c-15.3,30.5,0.3,66.3,24.2,87.4
			c3.3,1.5,6.8,2.9,10.4,4c11.6,3.6,35.2,1,47.2-0.3c21.6-2.4,43.3-4.9,64.9-7.2c10.8-1.2,20.1,0.8,29.8,2.8
			c5.6,1.2,11.3,2.4,17.4,3c25.1,2.5,51.8,2.5,76-6C349.7,330.2,357.4,318.6,351.5,299.8z"/>
		<path id="XMLID_440_" class="st2" d="M340.1,303.6c-2.6-10.6-31.8-10.6-34.4-29.1c-5.3-23.8,21.2-37.1,26.5-60.9
			c3.6-14.5,5.7-41.2-14.9-42.6c-17-1.2-31.6,12.6-48.5,14.9c-10.4,1.5-21.2-2.1-29.3-8.8c-9.1-7.5-11.2-16.2-13.2-27.3
			c-2-11.6-4.3-26.9-15.2-33.8c-3.9-2.5-8.3-3.9-12.7-5.2c-27.9-8.6-56.9-10.8-80.3,10.1c-8.3,7.4-14.8,17.9-14.5,29
			c0.5,15.6,13.7,28.2,15.6,43.7c1.3,10.4-2.8,20.9-9.2,29.2c-10.7,13.6-25.5,22.9-33.4,38.9c-14.1,28.1,0.3,61.1,22.3,80.6
			c3.1,1.4,6.3,2.7,9.6,3.7c10.7,3.3,32.4,1,43.5-0.3c20-2.2,39.9-4.5,59.9-6.6c9.9-1.1,18.5,0.7,27.5,2.6c5.1,1.1,10.4,2.2,16,2.7
			c23.1,2.3,47.7,2.3,70.1-5.5C338.5,331.6,345.6,320.9,340.1,303.6z"/>
	</g>
	<path id="XMLID_574_" class="st3" d="M193.9,355.7c0.6,0.2-8.3-20.6-8.3-20.6h-0.9l-20,6.5c0.2,0.1,0.4,0.2,0.5,0.4
		c-0.2-0.2-0.3-0.3-0.5-0.4l-0.7,0.2c0,0-0.9,0-2.4-0.1c-2,0.9-3.9,2.7-3.9,2.7c-1.7,8.6,4.8,13.6,12.2,15.9
		c1.2-0.5,1.8-0.8,1.8-0.8S193.3,355.6,193.9,355.7z"/>
	<path id="XMLID_573_" class="st4" d="M157.7,343.9c0,0,1.9-1.9,3.9-2.7c-8.3-0.3-35.9-0.9-41.4,2.4c-6.4,3.9-9.5,7.3-9.4,10.9
		c0.2,3.6,4.1,15.6,26.1,13.1c17.2-2,35.1-4.8,33-7.8C162.5,357.5,156,352.5,157.7,343.9z"/>
	<path id="XMLID_572_" class="st5" d="M170,360.4c-3.5-1.1-6.8-2.8-9.2-5.2c-10.2,3.5-18.9,2.9-29.1,2.9c-1.1-1.3-2.6-8.2-0.6-9.6
		c5.3-3.7,20.2-2.6,26.6-4.1c0,0,1.9-1.9,3.9-2.7c-8.3-0.3-35.9-0.9-41.4,2.4c-6.4,3.9-9.5,7.3-9.4,10.9c0.2,3.6,4.1,15.6,26.1,13.1
		C154.2,366.3,172.1,363.4,170,360.4z"/>
	<path id="XMLID_571_" class="st6" d="M121.1,343.8c-0.3,0.1-0.6,0.2-0.8,0.4c-6.4,3.9-9.5,7.3-9.4,10.9c0.1,2.6,2.3,9.7,12,12.4
		C123.3,359.6,124.3,351.7,121.1,343.8z"/>
	<g id="XMLID_566_">
		<line id="XMLID_570_" class="st7" x1="155.2" y1="343.8" x2="148.4" y2="359.3"/>
		<line id="XMLID_569_" class="st7" x1="149.2" y1="344.8" x2="142.8" y2="358.7"/>
		<line id="XMLID_568_" class="st7" x1="142.2" y1="345.6" x2="137" y2="359.3"/>
		<line id="XMLID_567_" class="st7" x1="134.7" y1="345.6" x2="130.5" y2="359.3"/>
	</g>
	<g id="XMLID_561_">
		<line id="XMLID_565_" class="st7" x1="158.1" y1="358.7" x2="148.4" y2="344.5"/>
		<line id="XMLID_564_" class="st7" x1="152" y1="358.6" x2="143" y2="345.8"/>
		<line id="XMLID_563_" class="st7" x1="145" y1="358.8" x2="137.2" y2="346.1"/>
		<line id="XMLID_562_" class="st7" x1="137.5" y1="359.9" x2="130.8" y2="347.1"/>
	</g>
	<g id="XMLID_557_">
		<path id="XMLID_558_" d="M245.9,299.1c0,0,17.3,14.8,11.8,19.8c-2.8,2.6-31.3,25.1-31.3,25.1s-22-9.1-36.5-0.1
			c-13.1,1.5-33.9-12.3-40.9-24.8c-2.9-5.2,6.2-16,11-19.3l7.5-1.3l77.4-0.3L245.9,299.1z"/>
	</g>
	<path id="XMLID_551_" class="st8" d="M220,169.5c-0.2-0.2-0.4-0.5-0.6-0.9c-0.1-0.4-0.2-0.7-0.3-0.9c-0.1-0.3-0.2-0.5-0.3-0.8
		c-1.4-5.1-1.1-14.9-1.4-17.7c0,0-6.9,0.4-13.8,0.5c-6.9-0.1-13.8-0.5-13.8-0.5c-0.2,2.8,0,12.6-1.4,17.7c-0.1,0.3-0.2,0.6-0.3,0.8
		c-0.1,0.3-0.2,0.6-0.3,0.9c-0.2,0.4-0.4,0.6-0.6,0.9c-2.5,2.7-30,9.7-33.4,16.3c3.1,11.2,95.9,11.3,99,0.1
		C249.4,179.3,222.4,172.2,220,169.5"/>
	<path id="XMLID_548_" class="st9" d="M252.9,185.8c-3.4-6.6-30.6-13.5-33.1-16.1c-0.2-0.2-0.4-0.5-0.6-0.9
		c-0.1-0.3-0.2-0.7-0.3-0.9c-0.1-0.3-0.2-0.5-0.3-0.8c-1.4-5.1-1.1-14.7-1.4-17.5c0,0-6.8,0.4-13.6,0.5c-6.8-0.1-13.6-0.5-13.6-0.5
		c-0.2,2.8-0.2,10.1-1.1,15.5c9.7,11.8,40,17.3,60.5,23.7C251.4,187.9,252.6,186.9,252.9,185.8"/>
	<path id="XMLID_546_" class="st10" d="M256.9,185.8"/>
	<path id="XMLID_545_" class="st10" d="M256.9,186.9"/>
	<path id="XMLID_542_" class="st11" d="M204.6,208.2c-14.7,0-27.4-15.9-27.4-30.1c0-2,0.3-4,0.7-5.9c1.8-0.3,3.8-0.7,5.9-0.9
		c6.2,6.6,12.8,9,18,9.8c0.6,0.1,1.5,3.8,1.5,8.6c0.8-3,1.9-8.4,2.5-8.4c11.7-0.3,18.5-10,18.5-10s2.3,0.6,5.6,1.5
		c0.4,1.7,0.6,3.5,0.6,5.3C230.5,192.3,219.3,208.2,204.6,208.2z"/>
	<path id="XMLID_541_" class="st12" d="M245,298.1L245,298.1C245,298.1,245,298.1,245,298.1z"/>
	<path id="XMLID_539_" class="st5" d="M123.4,240.4c1.4-5,16.7-47.7,28.2-58.3c0.6-0.6,7-3.5,8.2-4.1c0,0,0,0,0,0
		c0.2-0.1,0.5-0.3,0.8-0.4c2.7-1.4,7.1-3.2,13.3-4.7c1.3-0.3,2.6-0.6,4-0.8c-0.5,1.9,11.2,19.7,26,19.7c14.7,0,26.5-17.5,26.1-19.2
		c1,0.3,2,0.6,3.2,0.9c4.6,1.3,10.1,3,14.1,4.7l0,0l0,0c1.2,0.5,2.3,1,3.1,1.5c2.2,1,4.7,2.3,5.1,2.6c11.5,10.6,22.4,41.9,22.4,41.9
		c6.2,13.9,4.3,28.9-0.2,31.6c-19.6,11.7-29.6-16.6-29.6-16.6c0.1,2.6,0.4,27.4-0.4,41.3c-0.8,14.1-2.9,17.4-2.7,17.4
		c0,0-60.7,0.3-77.5,0.3c-6.1-3.8-7.6-60.9-5.4-77.6c-6.8,13.2-13.7,27.4-13.7,27.4l0.6,43c-4.2,4.5-14.3,2.8-21.3,3.2
		C124.1,265.5,122.5,243.4,123.4,240.4z"/>
	<path id="XMLID_49_" class="st13" d="M235.4,244.8c6.4-4.5,5.4-27.1,5.4-40.6c5.2,18.3,10.5,46.8,33,53.5
		c-17,6.1-25.7-18.4-25.7-18.4c0.1,2.6-0.2,27.4-1,41.3c-0.8,14.1-2.3,17.4-2.1,17.5c0,0-1.3,0-3.6,0
		C244.1,279.8,235.4,262.8,235.4,244.8z"/>
	<path id="XMLID_536_" class="st3" d="M187.8,165.7c0,0-0.9,10.8,14,15.4c-6.1,2.5-12.8,16.3-12.8,16.3s-10.8-13.5-9.1-25.7
		C182.3,169.5,187.8,165.7,187.8,165.7z"/>
	<path id="XMLID_533_" class="st3" d="M219.3,165.7c0,0,1.4,11-13.5,15.6c6.1,2.5,7.3,17.9,7.3,17.9s17.8-14.7,13.2-27.5
		C223.9,169.5,219.3,165.7,219.3,165.7z"/>
	<path id="XMLID_529_" class="st14" d="M204,314.6c0,0,68.9-22.1,91.4-15.5c22.5,6.6,27.5,44.2-50.2,54.1
		c-77.7,9.9-74.3,9.1-74.3,9.1s-13-24.7-1.6-37.4C188.2,318.4,204,314.6,204,314.6z"/>
	<g id="XMLID_524_">
		
			<linearGradient id="XMLID_3_" gradientUnits="userSpaceOnUse" x1="1302.5067" y1="131.926" x2="1367.1503" y2="131.926" gradientTransform="matrix(-1 0 0 1 1542.2073 0)">
			<stop  offset="0" style="stop-color:#FFDDCC"/>
			<stop  offset="1" style="stop-color:#FFBC97"/>
		</linearGradient>
		<path id="XMLID_526_" class="st15" d="M175.1,122.7c0,16.3,6.1,26.6,11,34c5.3,8.1,10.3,9.9,18.2,12.5c19.3,6.3,24.6,4.4,29.3-3.5
			c2.1-3.5,7-16.1,6-24.3c-0.4-3.6,0.2-9.7-0.4-23.3c-0.9-21.6-18.8-27.2-34.9-27.2C188.1,90.9,175.1,101.1,175.1,122.7z"/>
		<path id="XMLID_525_" class="st16" d="M174.7,148.4"/>
	</g>
	<path id="XMLID_523_" class="st17" d="M173.1,150.6c3.4,5.5,7.1,9.5,12.6,8.9c-0.2-5.3-0.3-10.6-0.5-15.9c-0.1-2.8-0.2-5.7,1-8.3
		c1.1-2.6,3.9-4.6,6.6-4c2.1,0.5,3.6,2.4,4.7,4.3c1.1,1.9,1.9,4,3.5,5.5c0-3.4,1.6-7.1,4.3-9.4c2.5-2.1,7.4-1,10.6-1.2
		c5.8-0.5,11.5,0,17.3-1.1c5-1,10.3-3,12.9-7.5c2.4-4.1,3.4-5.5,1.1-9.7c-2.2-4.2-7-5.5-10.8-8.5c-4.4-3.4-10-11.5-14.4-14.8
		c-12.4-9.4-24.3-5.4-28.9-4.2c-2,0.5-4,1.3-5.6,2.5c-0.4,0.3-3.8,4.1-3.6,4.1c-7.5-1.8-19.8,3.4-19.9,18.7
		C163.9,116.6,163.1,134.2,173.1,150.6z"/>
	<path id="XMLID_522_" class="st3" d="M229.8,355.7c-0.6,0.2,8.3-20.6,8.3-20.6h0.9l20,6.5c-0.2,0.1-0.4,0.2-0.5,0.4
		c0.2-0.2,0.3-0.3,0.5-0.4l0.7,0.2c0,0,0.9,0,2.4-0.1c2,0.9,3.9,2.7,3.9,2.7c1.7,8.6-4.8,13.6-12.2,15.9c-1.2-0.5-1.8-0.8-1.8-0.8
		S230.5,355.6,229.8,355.7z"/>
	<path id="XMLID_521_" class="st4" d="M266.1,343.9c0,0-1.9-1.9-3.9-2.7c8.3-0.3,35.9-0.9,41.4,2.4c6.4,3.9,9.5,7.3,9.4,10.9
		c-0.2,3.6-4.1,15.6-26.1,13.1c-17.2-2-35.1-4.8-33-7.8C261.3,357.5,267.8,352.5,266.1,343.9z"/>
	<path id="XMLID_520_" class="st5" d="M253.8,360.4c3.5-1.1,6.8-2.8,9.2-5.2c10.2,3.5,18.9,2.9,29.1,2.9c1.1-1.3,2.6-8.2,0.6-9.6
		c-5.3-3.7-20.2-2.6-26.6-4.1c0,0-1.9-1.9-3.9-2.7c8.3-0.3,35.9-0.9,41.4,2.4c6.4,3.9,9.5,7.3,9.4,10.9c-0.2,3.6-4.1,15.6-26.1,13.1
		C269.6,366.3,251.7,363.4,253.8,360.4z"/>
	<path id="XMLID_519_" class="st6" d="M302.7,343.8c0.3,0.1,0.6,0.2,0.8,0.4c6.4,3.9,9.5,7.3,9.4,10.9c-0.1,2.6-2.3,9.7-12,12.4
		C300.5,359.6,299.5,351.7,302.7,343.8z"/>
	<g id="XMLID_512_">
		<line id="XMLID_518_" class="st7" x1="268.6" y1="343.8" x2="275.4" y2="359.3"/>
		<line id="XMLID_517_" class="st7" x1="274.6" y1="344.8" x2="281" y2="358.7"/>
		<line id="XMLID_516_" class="st7" x1="281.6" y1="345.6" x2="286.7" y2="359.3"/>
		<line id="XMLID_514_" class="st7" x1="289.1" y1="345.6" x2="293.2" y2="359.3"/>
	</g>
	<g id="XMLID_507_">
		<line id="XMLID_511_" class="st7" x1="265.7" y1="358.7" x2="275.3" y2="344.5"/>
		<line id="XMLID_510_" class="st7" x1="271.8" y1="358.6" x2="280.8" y2="345.8"/>
		<line id="XMLID_509_" class="st7" x1="278.8" y1="358.8" x2="286.6" y2="346.1"/>
		<line id="XMLID_508_" class="st7" x1="286.2" y1="359.9" x2="293" y2="347.1"/>
	</g>
	<path id="XMLID_499_" class="st18" d="M207.1,313.9c0,0-68.9-22.1-91.4-15.5c-22.5,6.6-27.5,44.2,50.2,54.1
		c77.7,9.9,74.3,9.1,74.3,9.1s13-24.7,1.6-37.4C222.9,317.7,207.1,313.9,207.1,313.9z"/>
	
		<linearGradient id="XMLID_4_" gradientUnits="userSpaceOnUse" x1="1377.058" y1="306.0171" x2="1412.8678" y2="306.0171" gradientTransform="matrix(-1 0 0 1 1542.2073 0)">
		<stop  offset="0" style="stop-color:#FFDDCC"/>
		<stop  offset="1" style="stop-color:#FFBC97"/>
	</linearGradient>
	<path id="XMLID_788_" class="st19" d="M129.3,294.4c0.5,3.6,1.9,8,4.7,9.4c4.4,2.1,10.7,3.2,14.3,6.6c1.7,1.6,2.9,3.6,4,5.7
		c0.3,0.5,0.6,1,1,1.4c0.4,0.4,1.1,0.6,1.6,0.4c0.9-0.3,1.1-1.6,1.1-2.6c0,0.3,3,1.8,3.4,2.1c1.3,0.9,2.4,2,4,2.4
		c0.4,0.1,0.9,0.1,1.2-0.2c0.2-0.2,0.2-0.5,0.2-0.8c0.1-1.9,0.2-3.9,0.2-5.8c0-2-0.1-4.1-1-6c-1.8-3.7-5.9-5.6-9.6-7.5
		c-8.2-4.2-6.5-7.4-6.8-7.3C143.5,295.2,135.6,294.3,129.3,294.4z"/>
	
		<linearGradient id="XMLID_5_" gradientUnits="userSpaceOnUse" x1="1291.5988" y1="178.2922" x2="1314.5254" y2="178.2922" gradientTransform="matrix(-1 0 0 1 1542.2073 0)">
		<stop  offset="0" style="stop-color:#FFDDCC"/>
		<stop  offset="1" style="stop-color:#FFBC97"/>
	</linearGradient>
	<path id="XMLID_328_" class="st20" d="M250.6,184.4c0,0,0-17.1-5.7-13.2c0,0-1.1-0.7-1.1-0.7c-0.5-0.3-0.9-0.6-1.4-0.9
		c-0.9-0.7-1.7-1.4-2.5-2.2c-1.5-1.6-2.9-3.3-4.2-5.1c-0.4-0.6-1-1.3-1.8-1.2c-0.5,0.1-0.9,0.5-1,0.9c-0.2,0.4-0.1,0.9-0.1,1.4
		c0.4,2.3,2.2,4,3.2,6c-0.9,0.1-1.9,0.4-2.6,1c-0.7,0.6-1.1,1.6-0.8,2.5c-1,0.3-2.1,0.7-2.7,1.5c-0.8,0.9-0.8,2.3-0.2,3.3
		c-1,0-1.9,0.9-2,2c-0.2,1,0.2,2,0.7,3c0.7,1.4,1.6,2.6,2.4,4c0.7,1.2,1.9,2.1,2.9,3c1.6,1.5,3.3,2.9,5,4.3c0.7,0.6,1.5,1.2,2.3,1.7
		L250.6,184.4z"/>
	<path id="XMLID_296_" class="st21" d="M281.3,236.9c-4.3-16-12.7-30.5-25.8-54.6c-13.9-0.5-21.9,11.1-21.9,11.1s12.6,36.2,19.3,52
		c6.7,15.8,17.3,13.8,18.6,13.4C272.8,258.6,286.6,256.7,281.3,236.9z"/>
	<path id="XMLID_550_" class="st3" d="M129.2,154.2h4.8v-4.8c0-1.4,1.2-2.6,2.6-2.6c1.4,0,2.6,1.1,2.6,2.6v4.8h4.8
		c1.4,0,2.6,1.1,2.6,2.6s-1.2,2.6-2.6,2.6h-4.8v4.8c0,1.4-1.1,2.6-2.6,2.6c-1.4,0-2.6-1.1-2.6-2.6v-4.8h-4.8c-1.4,0-2.6-1.1-2.6-2.6
		S127.8,154.2,129.2,154.2z"/>
	<g>
		<path id="XMLID_39_" class="st22" d="M28.8,338.6l7,20.6c0,0,17.7,9.9,29.7-0.9c6.9-17.9,7.1-21.4,7.1-21.4L28.8,338.6z"/>
		<path id="XMLID_37_" class="st5" d="M26.4,334.8c0,0,2.2,7,4.2,10.4c2,3.3,33.2,4.3,40.8-1.5c3.6-8.6,3.4-9.8,3.4-9.8L26.4,334.8z
			"/>
		<path id="XMLID_33_" class="st4" d="M25.9,333.3l0.6,1.5c0,0,3.2,3.8,16.7,3.5c13.5-0.3,29.9-0.1,31.7-4.4
			C76.6,329.6,35,328.9,25.9,333.3z"/>
		<path id="XMLID_31_" class="st0" d="M30.2,333.3l0.5,0.9c0,0,2.6,2.3,13.7,2.1c11.1-0.2,24.6,0,26.1-2.6
			C71.9,331.1,37.7,330.6,30.2,333.3z"/>
		<path id="XMLID_29_" class="st22" d="M49.1,334.1c-4-11.7-11.8-21.9-22.1-28.8c-5.3-3.6-11.7-6.3-18-5.4c-1.9,0.3-3.9,0.9-5.1,2.4
			c-1.8,2.2-1.5,5.5,0.1,7.9c1.6,2.4,4.1,3.9,6.6,5.2c11.6,6.1,26.7,7.1,33.1,18.5c0.5,0.9,4.9-2.1,5.3-1.2"/>
		<path id="XMLID_26_" class="st22" d="M69.5,325.5c-3.1,1.3-5.9,3.3-7.9,6c-1.8,2.5-4.5,3.3-7.5,4.1c-0.2,0.1-0.5,0.1-0.7,0
			c-0.2-0.1-0.3-0.4-0.4-0.6c-0.7-2.2-1-4.5-1.9-6.7c-1.3-3.3-3-6.1-5.1-8.9c-2.8-3.8-4.3-8.6-4-13.3c1.4,4.8,5.9,5.9,10.1,7.3
			c1.2,0.4,1.7,0.8,1.9-0.5c0.3-1.6-1-4.2-1.4-5.8c-0.5-1.6-0.9-3.2-1.3-4.9c-0.3-1.6-0.5-3.1-0.6-4.7c-0.1-1.6-0.1-3.2,0.4-4.8
			c0.3-1.2,0.9-2.4,1.7-3.5c1.7-2.5,3.9-4.6,6.6-6.1c-0.4,1.5,0.3,3,1.1,4.3c0.9,1.4,1.7,3.6,2.9,4.7c0.5,0.5,1.2,0.7,1.9,0.5
			c0.4-0.2,0.8-0.5,1.1-0.9c1-1.4,1.5-3.1,2.2-4.6c0.7-1.7,1.7-2.7,2.9-4c2.7-3,6-5.2,10.1-5.4c0.4,0,0.9,0,1.3,0.1
			c0.6,0.2,1,0.8,1.4,1.3c2,3,2.3,6.9,1.3,10.4c-0.4,1.5-1.2,3.5-2.3,4.6c-1.4,1.5-3.1,2.2-4.2,4.1c-1.4,2.4,4.2,1.1,5,0.9
			c1.4-0.4,2.7-0.9,3.9-1.7c1.2-0.8,2.1-2.1,2.2-3.5c2.1,2.1,3.5,5.1,3.5,8.1c-0.1,7.9-8.3,8.1-13.9,10.2c1.3,1.3,2.4,2.4,4.5,2.5
			c1.4,0.1,2.8-0.4,3.9-1.2c0,0,0,2.5-0.1,2.8c-0.3,1-0.7,1.9-1.4,2.7c-1.6,1.8-3.6,2.6-5.9,3.2C77.1,323.1,73.2,323.9,69.5,325.5z"
			/>
		<path id="XMLID_1_" class="st23" d="M49.3,335c-4-2.2-6-6.8-6.5-11.3c-0.5-4.5,0.2-9,0.3-13.6c0.1-4.6-0.6-9.3-2.6-13.5
			c-1.4-2.9-3.3-5.4-5-8.1c-1.7-2.7-3.3-5.5-3.9-8.6c-0.6-3.1,0.1-6.6,2.3-8.9c1.7-1.7,4-2.5,6.3-3c2.3-0.5,4.8-0.7,7.1-0.2
			c0.7,0.1,1.3,0.3,1.9,0.8c0.5,0.4,0.9,1.1,1.1,1.7c1.9,4.6,0.2,9.8-0.9,14.7c-0.6,2.5-0.9,5.2,0.2,7.5c1.1,2.3,3.5,3.7,5.7,5.1
			c2.2,1.4,4.4,3.1,5,5.7c0.4,1.8-0.2,3.8-1.2,5.4c-1,1.6-2.3,3-3.4,4.5c-4.7,6.3-6.1,14.8-3.7,22.3"/>
	</g>
	<g>
		<path class="st1" d="M293.3,112.6c-9.6-3.3-17.5-10-22.4-19c-5.2-9.6-6.4-20.7-3.3-31.2c3.1-10.5,10-19.3,19.5-24.6
			c9.6-5.3,20.6-6.6,31-3.6c10.4,3,19.1,10,24.3,19.6c5.2,9.6,6.4,20.7,3.3,31.2c-6.3,21.8-29,34.4-50.5,28.2
			C294.6,113,293.9,112.8,293.3,112.6z M318.3,39.9c-0.5-0.2-1.1-0.4-1.7-0.5c-9-2.6-18.6-1.5-26.9,3.1c-8.3,4.6-14.3,12.2-17,21.4
			c-2.7,9.2-1.6,18.8,2.9,27.2c4.5,8.3,12,14.4,21,17c18.7,5.4,38.3-5.6,43.8-24.5c2.7-9.2,1.6-18.8-2.9-27.2
			C333.5,48.5,326.6,42.7,318.3,39.9z"/>
		<path class="st5" d="M276.1,64.6c0,0,20.1,14.9,21.8,37.2l9.4,1.8L360,36.8l-23-2.7l-30.1,56.7c0,0-6.7-31-14.3-33.1L276.1,64.6z"
			/>
	</g>
</g>
</svg>
