<svg id="Слой_1" xmlns="http://www.w3.org/2000/svg" viewBox="0 0 25 25"><style>.st0{fill:#a8a8a8}</style><path class="st0" d="M11.3 11c.3 0 .5-.2.5-.5s-.2-.5-.5-.5-.5.2-.5.5.3.5.5.5z"/><path class="st0" d="M12.5 0C5.8 0 0 5.7 0 12.5S5.8 25 12.5 25c5.3 0 10.2-3.6 11.9-8.6.1-.1.1-.2.1-.3.4-1.2.6-2.4.6-3.6C25 5.7 19.2 0 12.5 0zM21 20.1h-3.7l-2-3.7 2-3.4h4.3l1.8 3.1c-.5 1.5-1.3 2.8-2.4 4zm-3.7 1H20c-1.2 1.1-2.6 1.9-4.1 2.4l1.4-2.4zm-6.8-5.2l-2-3.4 2-3.4h4l2 3.4-2 3.4h-4zm-2.8 5.2l1.4 2.4C7.6 23 6.2 22.2 5 21.1h2.7zm0-1H4c-1.1-1.2-1.9-2.5-2.4-4L3.4 13h4.3l2 3.4-2 3.7zM1 12.5c0-.8.1-1.5.2-2.3l1.3 2.3-1.3 2.3c-.1-.8-.2-1.5-.2-2.3zm3-7.6h3.7l2 3.7-2 3.4H3.4L1.6 8.9c.5-1.5 1.3-2.8 2.4-4zm3.7-1H5C6.2 2.8 7.6 2 9.1 1.5L7.7 3.9zm9.6 0l-1.4-2.4c1.5.5 2.9 1.3 4.1 2.4h-2.7zm0 1H21c1.1 1.2 1.9 2.5 2.4 4L21.6 12h-4.3l-2-3.4 2-3.7zm5.1 7.6l1.3-2.3c.2.8.2 1.5.2 2.3 0 .8-.1 1.5-.2 2.3l-1.3-2.3zM14.6 1.2l1.9 3.2-2 3.7h-4l-2-3.7 1.9-3.2c.7-.2 1.4-.2 2.1-.2.7 0 1.4 0 2.1.2zm-4.2 22.6l-1.9-3.2 2-3.7h4l2 3.7-1.9 3.2c-.7.2-1.4.2-2.1.2-.7 0-1.4 0-2.1-.2z"/><path class="st0" d="M10.8 12.5l.2-.3c.1-.2.1-.5-.2-.7-.2-.1-.5-.1-.7.2l-.3.6c-.1.2-.1.3 0 .5l1.1 2c.1.2.4.3.7.2.2-.1.3-.4.2-.7l-1-1.8z"/></svg>