<svg id="Слой_1" xmlns="http://www.w3.org/2000/svg" viewBox="0 0 25 25"><style>.st0{fill:#a8a8a8}</style><path class="st0" d="M14.5 4.7c-.3 0-.5.2-.5.5s.2.5.5.5.5-.2.5-.5c-.1-.3-.3-.5-.5-.5zm-4 0c-.3 0-.5.2-.5.5s.2.5.5.5.5-.2.5-.5-.2-.5-.5-.5zm0 10.5c-.3 0-.5.2-.5.5s.2.5.5.5.5-.2.5-.5c0-.2-.2-.5-.5-.5zm0 0"/><path class="st0" d="M19.8 7.7c1.7-.4 3-2 3-3.8 0-2.1-1.8-3.9-4-3.9-1 0-1.9.4-2.6 1-1.1-.7-2.4-1-3.7-1S9.9.3 8.8 1C8 .4 7.1 0 6.2 0c-2.2 0-4 1.8-4 3.9 0 1.8 1.3 3.4 3 3.8.2 1.6.9 3.1 2.1 4.2-2.1 1.1-3.6 3.8-3.6 6.3 0 .8.2 1.7.5 2.4v.5C4.2 23.2 6 25 8.1 25c.8 0 1.6-.3 2.3-.8.7.2 1.4.3 2.1.3.7 0 1.4-.1 2.1-.3.7.5 1.5.8 2.3.8 2.2 0 3.9-1.8 3.9-3.9v-.5c.3-.8.5-1.6.5-2.4 0-2.5-1.5-5.1-3.6-6.3 1.2-1.1 1.9-2.6 2.1-4.2zm-.4-3c-.2-.6-.5-1.2-.9-1.7.1 0 .2-.1.4-.1.5 0 1 .4 1 1-.1.3-.2.6-.5.8zM18.8 1c1.6 0 2.9 1.3 2.9 2.9 0 1.3-.8 2.4-2 2.8 0-.3-.1-.7-.1-1 .7-.3 1.1-1 1.1-1.8 0-1.1-.9-2-2-2-.4 0-.7.1-1 .3-.2-.2-.5-.5-.8-.7.7-.3 1.3-.5 1.9-.5zM5.2 6.7c-1.1-.4-2-1.5-2-2.8 0-1.6 1.3-2.9 3-2.9.6 0 1.3.2 1.8.6-.4.2-.6.4-.8.6-.3-.1-.7-.2-1-.2-1.1 0-2 .9-2 2 0 .8.4 1.4 1.1 1.8-.1.2-.1.5-.1.9zm0-2.8c0-.5.4-1 1-1 .1 0 .2 0 .4.1-.5.5-.8 1.1-1 1.7-.3-.2-.4-.5-.4-.8zm-.5 14.3c0-2.3 1.5-4.8 3.5-5.6.1.1.2.2.4.2-1.2 1-2 2.5-2.3 4.1-.6.5-1.2 1.2-1.5 2-.1-.3-.1-.5-.1-.7zm5.3 5.1c-.5.5-1.2.7-1.9.7-1.6 0-2.9-1.3-2.9-2.9 0-1.6 1.3-3.9 2.9-3.9 1.6 0 2.9 2.3 2.9 3.9 0 .9-.3 1.7-1 2.2zm2.5.2c-.4 0-.9 0-1.3-.1.5-.7.8-1.5.8-2.3 0-2.1-1.7-4.9-3.9-4.9-.2 0-.5 0-.7.1.4-1.2 1.1-2.3 2.1-3 1 .4 2 .6 3 .6s2.1-.2 3-.6c1 .7 1.7 1.8 2.1 3-.2-.1-.5-.1-.7-.1-2.2 0-3.9 2.8-3.9 4.9 0 .4.1.7.2 1.1.1.4.3.9.6 1.2-.4.1-.9.1-1.3.1zm4.4.5c-.7 0-1.4-.2-1.9-.7-.4-.4-.8-.9-.9-1.4-.1-.2-.1-.5-.1-.8 0-1.6 1.4-3.9 2.9-3.9 1.6 0 2.9 2.3 2.9 3.9S18.5 24 16.9 24zm3.4-5.8v.7c-.4-.8-.9-1.5-1.5-2-.3-1.6-1.1-3-2.3-4.1.1-.1.2-.2.4-.2 1.9.8 3.4 3.2 3.4 5.6zM12.5 13c-3.4 0-6.1-2.6-6.3-5.6v-.2C6 3.8 8.9 1 12.5 1c2.9 0 5.4 2 6.1 4.5.3 1.1.2 1.8.2 1.9-.2 3-2.9 5.6-6.3 5.6zm0 0"/><path class="st0" d="M14.5 10.1c-.3 0-.5.2-.5.5s-.2.5-.5.5c-.1 0-.3-.1-.3-.1-.2-.2-.2-.3-.2-.5v-1c.9-.2 1.5-.7 1.5-1.4 0-.8-.9-1.5-2-1.5s-2 .6-2 1.5c0 .7.6 1.3 1.5 1.4v1c0 .3-.2.5-.5.5-.1 0-.3-.1-.3-.1-.1-.1-.1-.2-.1-.3 0-.3-.2-.5-.5-.5s-.5.2-.5.5c0 .4.2.8.4 1 .3.3.6.4 1 .4s.7-.1 1-.4c.3.2.6.4 1 .4.8 0 1.5-.7 1.5-1.5-.1-.2-.3-.4-.5-.4zm-3-2c0-.2.4-.5 1-.5s1 .3 1 .5-.4.5-1 .5-1-.3-1-.5zm5.4 10.1c-.9 0-2 1.7-2 2.9 0 1.1.9 2 2 2s2-.9 2-2c-.1-1.2-1.1-2.9-2-2.9zm0 3.9c-.5 0-1-.4-1-1 0-.8.6-1.7 1-1.9.3.2 1 1.1 1 1.9 0 .5-.5 1-1 1zm-8.8-3.9c-.9 0-2 1.7-2 2.9 0 1.1.9 2 2 2s2-.9 2-2c0-1.2-1.1-2.9-2-2.9zm0 3.9c-.5 0-1-.4-1-1 0-.9.7-1.8 1-1.9.3.2 1 1.1 1 1.9 0 .5-.5 1-1 1zm6.4-6.9h-2c-.3 0-.5.2-.5.5s.2.5.5.5h2c.3 0 .5-.2.5-.5s-.3-.5-.5-.5zm0 0"/></svg>