<svg id="Слой_1" xmlns="http://www.w3.org/2000/svg" viewBox="0 0 25 25"><style>.st0{fill:#a8a8a8}</style><path class="st0" d="M23 23.1H2c-1.1 0-2-.9-2-2v-14c0-1.1.9-2 2-2h21c1.1 0 2 .9 2 2v14c-.1 1.2-.9 2-2 2zM2 6.3c-.6 0-1 .4-1 .9v14c0 .5.4.9.9.9H23c.5 0 .9-.4.9-.9v-14c0-.5-.4-.9-.9-.9H2z"/><path class="st0" d="M16.9 6.3c-.3 0-.5-.2-.5-.5V3.5c0-.4-.3-.6-.6-.6H9.3c-.4 0-.6.3-.6.6v2.2c0 .3-.2.5-.5.5s-.5-.2-.5-.5V3.5c0-.9.8-1.6 1.6-1.6h6.4c.9 0 1.6.8 1.6 1.6v2.2c.1.3-.2.6-.4.6zm7.5 7.9H.5m14.4 2.4H10c-.3 0-.5-.2-.5-.5v-3.8c0-.3.2-.5.5-.5h4.9c.3 0 .5.2.5.5v3.8c.1.3-.1.5-.5.5zm-4.4-1h3.9v-2.8h-3.9v2.8z"/><path class="st0" d="M9.8 13.7H.5c-.3 0-.5.2-.5.5s.2.5.5.5h9.3v-1zm14.6 0H15v1h9.4c.3 0 .5-.2.5-.5s-.2-.5-.5-.5z"/></svg>