<svg id="Слой_1" xmlns="http://www.w3.org/2000/svg" viewBox="0 0 25 25"><style>.st0{fill:#a8a8a8}</style><path class="st0" d="M12.5 2.3c.1 0 .3-.1.3-.1.1-.1.2-.3.2-.4s-.1-.3-.1-.3c-.1-.1-.2-.1-.3-.1s-.3.1-.3.1c-.2.1-.3.2-.3.3 0 .1.1.3.1.3.1.1.3.2.4.2z"/><path class="st0" d="M24.6 11.9c.3-.3.4-.8.4-1.2 0-1.1-.9-2.1-2.1-2.1-.6 0-1.2.3-1.5.7l.8-2.5c.4-1.3.2-2.7-.6-3.7-.8-1.1-2-1.7-3.4-1.7h-3.6c-.3 0-.5.2-.5.5s.2.5.5.5h3.6c1 0 2 .5 2.6 1.3s.8 1.9.5 2.9l-1.1 3.5H4.8l-1-3.6c-.3-1-.1-2 .5-2.9.6-.8 1.6-1.3 2.6-1.3h3.5c.3 0 .5-.2.5-.5s-.2-.5-.5-.5H6.8c-1.3 0-2.5.6-3.3 1.7s-1 2.4-.6 3.7l.8 2.5c-.5-.3-1-.6-1.6-.6-1.2 0-2.1.9-2.1 2 0 .5.2.9.4 1.2.5 1.6.7 3.3.7 5V23c0 .1.1.3.1.3.1.1.2.1.3.1h2c.3 0 .5-.2.5-.5V21h16.8v2.1c0 .3.2.5.5.5h2c.1 0 .3-.1.3-.1.1-.1.1-.2.1-.3V17c.1-1.8.4-3.5.9-5.1zm-2.7-1.3c0-.6.5-1.1 1.1-1.1s1.1.5 1.1 1.1-.5 1.1-1.1 1.1c-.3 0-.5.2-.5.5s.2.5.5.5h.4c-.3 1.4-.5 2.8-.5 4.3v3.2h-1v-9.6zm-2.1.3c.6 0 1.1.5 1.1 1.1v2c0 .6-.5 1.1-1.1 1.1H5.2c-.6 0-1-.4-1.1-1h4.5c.3 0 .5-.2.5-.5s-.2-.5-.5-.5H4.1V12c0-.6.5-1.1 1.1-1.1h14.6zM1 10.6c0-.6.5-1.1 1.1-1.1s1.1.5 1.1 1.1V20h-1v-3.2c0-1.4-.2-2.9-.5-4.3h.4c.3 0 .5-.2.5-.5s-.2-.5-.5-.5c-.6.2-1.1-.3-1.1-.9zm1.1 12.1V21h1v1.7h-1zm2-5.7c0-.6.5-1.1 1.1-1.1h14.6c.6 0 1.1.5 1.1 1.1v3H4.1v-3zm17.8 5.7V21h1v1.7h-1z"/><path class="st0" d="M10.4 14c.1 0 .3-.1.3-.1.1-.1.1-.2.1-.3s-.1-.3-.1-.3c-.1-.1-.2-.1-.3-.1s-.3.1-.3.1c-.1.1-.1.2-.1.3s.1.3.1.3c0 .1.2.1.3.1z"/></svg>