<svg id="Слой_1" xmlns="http://www.w3.org/2000/svg" viewBox="0 0 25 25"><style>.st0{fill:#a8a8a8}</style><path class="st0" d="M15.4 21.3c0-.2-.2-.4-.4-.4h-.4v-2.5h2.1v-.8H1.2c-.2 0-.4-.2-.4-.4V2.9c0-.2.2-.4.4-.4h20c.2 0 .4.2.4.4v4.2h.8V2.9c0-.7-.6-1.2-1.2-1.2h-20C.6 1.7 0 2.2 0 2.9v14.2c0 .7.6 1.2 1.2 1.2h6.7v2.5h-.4c-.2 0-.4.2-.4.4v1.3H5.4v.8h11.7v-.8h-1.7v-1.2zm-6.6-3h5v2.5h-5v-2.5zm-.9 4.2v-.8h6.7v.8H7.9z"/><path class="st0" d="M1.7 14.2h15v.8h-15zm19.1-7.5V4.2c0-.5-.4-.8-.8-.8H2.5c-.5-.1-.8.3-.8.8v8.3h.8V4.2H20v2.5h.8z"/><path class="st0" d="M5 5.8V5H3.8c-.3 0-.5.2-.5.4v1.3h.8v-.9H5zm18.8 2.1h-5c-.7 0-1.3.6-1.3 1.3V20c0 .7.6 1.3 1.3 1.3h5c.7 0 1.3-.6 1.3-1.3V9.2c-.1-.7-.7-1.3-1.3-1.3zm-5 .9h5c.2 0 .4.2.4.4v.4h-5.8v-.4c-.1-.3.1-.4.4-.4zm5.4 1.6v7.5h-5.8v-7.5h5.8zm-.4 10h-5c-.2 0-.4-.2-.4-.4v-1.3h5.8V20c0 .2-.2.4-.4.4z"/><path class="st0" d="M20.8 19.2h.8v.8h-.8zm0-5.9h.8v.8h-.8zm1.7 0h.8v.8h-.8zm-3.3 0h.8v.8h-.8z"/></svg>