<svg id="Слой_1" xmlns="http://www.w3.org/2000/svg" viewBox="0 0 25 25"><style>.st0{fill:#a8a8a8}</style><path class="st0" d="M24.9 9.5l-.6-.6V3.7c0-2.1-1.7-3.7-3.7-3.7-.8 0-1.6.3-2.3.8C15.5-.6 12-.1 9.7 2.2c-2.5 2.5-2.8 6.2-1.1 9.1L5.9 14H4.7c-.3 0-.5.2-.5.5v.9h-.9c-.3 0-.5.2-.5.5v.9h-.9c-.3 0-.5.2-.5.5v.9H.5c-.1 0-.3.1-.3.1-.1.2-.2.3-.2.4v3.2c0 .3.2.5.5.5h3.2c.1 0 .3-.1.3-.1l5.4-5.4c.2-.2.2-.5 0-.7s-.5-.2-.7 0l-5.2 5.2H1v-2.2h.9c.3 0 .5-.2.5-.5v-.9h.9c.3 0 .5-.2.5-.5v-.9h.9c.3 0 .5-.2.5-.5V15h.9c.1 0 .3-.1.3-.1L9.2 12c.2.2.3.4.5.6 1.3 1.3 3.1 2.1 4.9 2.2V23c0 1.1.9 2.1 2.1 2.1h6.2c1.1 0 2.1-.9 2.1-2.1V9.9c0-.2-.1-.3-.1-.4zM20.5 1c1.5 0 2.8 1.2 2.8 2.8V8l-.9-1c-.1-1.8-.8-3.5-2.2-4.8-.3-.3-.7-.6-1-.9.4-.2.8-.3 1.3-.3zM10.4 2.9C11.6 1.6 13.3 1 15 1c.9 0 1.7.2 2.5.5-.3.4-.6.9-.7 1.5-.4.1-.8.3-1.1.6-.8.8-.8 2.2 0 3.1.4.4 1 .6 1.5.6.6 0 1.1-.2 1.5-.6s.6-1 .6-1.5-.1-1.2-.5-1.6c-.3-.3-.6-.5-1-.6.1-.4.3-.8.6-1.1.4.3.8.6 1.1.9 1.2 1.2 1.9 2.8 1.9 4.5s-.7 3.3-1.9 4.5c-1.3 1.3-2.9 1.9-4.5 1.9s-3.3-.6-4.5-1.9c-2.6-2.4-2.6-6.4-.1-8.9zm6.8 2.7c.3 0 .5-.2.5-.5V4c.1.1.2.1.4.2.2.2.3.5.3.8s-.1.7-.3 1c-.5.5-1.2.5-1.7 0s-.5-1.2 0-1.7c.1-.1.2-.2.3-.2v1.1c.1.2.3.4.5.4zM24 22.9c0 .6-.5 1.1-1.1 1.1h-6.2c-.6 0-1.1-.5-1.1-1.1v-8.2c1.7-.2 3.3-.9 4.6-2.1 1.2-1.2 1.9-2.7 2.1-4.3L24 10v12.9z"/><path class="st0" d="M12.5 4.2c-.2-.2-.5-.2-.7 0-1.8 1.8-1.8 4.6 0 6.4.1.1.2.1.3.1s.2 0 .3-.1c.2-.2.2-.5 0-.7-1.4-1.4-1.4-3.6 0-5 .3-.2.3-.5.1-.7zm1.5 6.6c-.3-.1-.5.1-.6.3-.1.3.1.5.3.6h.1c.2 0 .4-.1.5-.4.1-.2 0-.4-.3-.5zm7.9 10.6h-4.2c-.3 0-.5.2-.5.5s.2.5.5.5h4.2c.3 0 .5-.2.5-.5s-.2-.5-.5-.5zm-11.5-6.7c-.1 0-.3.1-.3.1-.1.1-.1.2-.1.3s.1.3.1.3c.1.1.2.1.3.1s.3-.1.3-.1c.1-.1.1-.2.1-.3s-.1-.3-.1-.3c-.1 0-.2-.1-.3-.1z"/></svg>