<?xml version="1.0" encoding="iso-8859-1"?>
<!-- Generator: Adobe Illustrator 22.0.1, SVG Export Plug-In . SVG Version: 6.00 Build 0)  -->
<svg version="1.1" id="Capa_1" xmlns="http://www.w3.org/2000/svg" xmlns:xlink="http://www.w3.org/1999/xlink" x="0px" y="0px"
	 viewBox="198.75 388.75 16.5 16.5" style="enable-background:new 198.75 388.75 16.5 16.5;" xml:space="preserve">
<g>
	<path style="fill:#A8A8A8;" d="M214.587,400.847h-0.431h-0.077v-0.173v-0.677c0-1.067-0.801-1.946-1.83-2.075
		c-0.086-0.011-0.173-0.017-0.261-0.017c-0.579,0-1.104,0.237-1.483,0.62c-0.376,0.378-0.608,0.899-0.608,1.472v0.85h-0.508
		c-0.247,0-0.445,0.198-0.445,0.445v3.355c0,0.247,0.198,0.445,0.445,0.445h3.99h1.213c0.221,0,0.402-0.158,0.438-0.368
		c0.004-0.025,0.007-0.051,0.007-0.077v-3.355C215.033,401.045,214.83,400.847,214.587,400.847z M211.983,398.796
		c0.661,0,1.201,0.54,1.201,1.201v0.85h-0.878h-1.524v-0.85c0-0.325,0.131-0.621,0.342-0.838
		C211.343,398.936,211.647,398.796,211.983,398.796z M214.142,404.203h-0.808h-3.51v-2.465h2.901h1.416V404.203z"/>
	<path style="fill:#A8A8A8;" d="M210.957,400.124"/>
	<path style="fill:#A8A8A8;" d="M210.379,400.968"/>
	<path style="fill:#A8A8A8;" d="M206.86,398.345c0.17,0.011,0.333,0.012,0.49,0.005c-0.104-0.005-0.208-0.007-0.312-0.007
		C206.978,398.343,206.919,398.344,206.86,398.345z"/>
	<path style="fill:#A8A8A8;" d="M207.037,389.093c-2.55,0-4.625,2.075-4.625,4.625c0,1.58,0.796,2.977,2.008,3.811
		c-0.197,0.068-0.391,0.144-0.582,0.227c-0.906,0.395-1.739,0.96-2.458,1.68c-1.511,1.511-2.343,3.52-2.343,5.657h1.25
		c0-2.892,1.829-5.365,4.391-6.324c0.682-0.255,1.417-0.404,2.182-0.423c0.059-0.002,0.118-0.002,0.177-0.002
		c0.105,0,0.209,0.003,0.312,0.007c1.432-0.066,2.304-0.821,2.304-0.821c1.212-0.835,2.008-2.232,2.008-3.811
		C211.662,391.168,209.587,389.093,207.037,389.093z M207.037,397.093c-1.861,0-3.375-1.514-3.375-3.375
		c0-1.861,1.514-3.375,3.375-3.375c1.861,0,3.375,1.514,3.375,3.375C210.412,395.579,208.898,397.093,207.037,397.093z"/>
</g>
</svg>
