<svg id="&#x421;&#x43B;&#x43E;&#x439;_1" xmlns="http://www.w3.org/2000/svg" viewBox="0 0 25 25"><style>.st0{fill:#a8a8a8}</style><path class="st0" d="M22.5 19.2h-2.2c-.8 0-1.5-.7-1.5-1.5v-1.9H4.1v1.9c0 .8-.7 1.5-1.5 1.5H.5c-.8 0-1.5-.7-1.5-1.5v-9c0-.6.2-1.1.6-1.4l1.1-1-1.1-.4c-.3-.1-.5-.3-.6-.6 0-.3 0-.6.1-.8l.2-.5c.2-.4.5-.7 1-.7h2.1L3 .5c.3-1.1 1.3-1.9 2.5-1.9h12c1.2 0 2.2.8 2.5 1.9l.8 2.9h2.1c.4 0 .8.3 1 .7l.2.4c-.1.2-.1.5-.2.8s-.3.5-.6.6l-1.1.4 1.1 1c.5.3.7.8.7 1.4v9c0 .8-.7 1.5-1.5 1.5zm-2.9-3.3v1.9c0 .4.3.7.7.7h2.2c.4 0 .7-.3.7-.7v-1.9h-3.6zm-19.9 0v1.9c0 .4.3.7.7.7h2.2c.4 0 .7-.3.7-.7v-1.9H-.3zm19.2-.8h4.4V8.7c0-.3-.1-.7-.4-.9l-2-1.8 2.2-.8c.1 0 .2-.1.2-.2v-.3l-.2-.4c-.1-.1-.2-.2-.3-.2h-2.6L19.3.7c-.2-.8-1-1.4-1.8-1.4h-12c-.8 0-1.6.6-1.8 1.4l-.9 3.4H.2c-.1 0-.2.1-.3.2l-.2.4V5c0 .1.1.2.2.2l2.2.8-2 1.8c-.2.2-.4.6-.4.9v6.4h19.2zm-2.5-1.5H6.6l1-4c.2-.6.8-1.1 1.4-1.1h4.9c.7 0 1.3.5 1.4 1.1l1.1 4zm-8.9-.7h7.9l-.8-3.1c-.1-.3-.4-.6-.7-.6H9c-.3 0-.6.2-.7.6l-.8 3.1zm-5.6-.4c-.2 0-.3-.1-.4-.1-.2-.1-.3-.4-.3-.6v-.4c0-.4.3-.7.7-.7h1.5c.4 0 .7.3.7.7 0 .3-.2.6-.5.7l-1.5.4h-.2zm0-1.1v.4l1.5-.3-1.5-.1zm19.2 1.1h-.2l-1.5-.4c-.3-.1-.5-.4-.5-.7 0-.4.3-.7.7-.7h1.5c.4 0 .7.3.7.7v.4c0 .2-.1.4-.3.6-.1.1-.3.1-.4.1zm-1.5-1.1l1.5.4v-.4h-1.5zm-2.4-1.1c-.1 0-.3-.1-.4-.2-.1-.1-.2-.3-.2-.4v-.6c0-.6.5-1.1 1.1-1.2l3.3-.4c.2 0 .4 0 .5.2.2.1.2.3.2.5v.7c0 .7-.5 1.3-1.2 1.3l-3.3.1zm3.9-2.2l-3.2.4c-.2 0-.5.2-.5.5v.5l3.2-.1c.3 0 .5-.3.5-.6v-.7zM5.8 10.3l-3.3-.1c-.7 0-1.2-.6-1.2-1.3v-.8c0-.2.1-.4.2-.5s.3-.2.5-.2l3.3.4c.6.1 1.1.6 1.1 1.2v.7c0 .2-.1.3-.2.4-.2.2-.3.2-.4.2zM1.9 8.1v.7c0 .3.2.6.5.6l3.2.1v-.4c0-.3-.2-.5-.5-.5l-3.2-.5zm18-2.2H3.1L4.3.8C4.4.1 5-.3 5.6-.3h11.7c.7 0 1.2.4 1.4 1.2l1.2 5zm-2-.7h1.2L18.2 1c-.2-.7-.6-.7-.8-.7H5.6c-.1 0-.5 0-.8.7l-.9 4.2h1.2l.1-.3c.1-.5.6-.8 1-.8H9c.5 0 .9.4 1 .8l.1.3h2.7l.1-.3c.1-.5.6-.8 1-.8h2.8c.5 0 .9.4 1 .8l.2.3zm-4.3 0h3.5v-.1c0-.1-.2-.3-.3-.3H14c-.1 0-.3.1-.3.3l-.1.1zm-7.7 0h3.5v-.1c0-.1-.2-.3-.3-.3H6.2c-.1 0-.3.1-.3.4z" transform="translate(1 3)" id="Page-1"/></svg>