<svg id="&#x421;&#x43B;&#x43E;&#x439;_1" xmlns="http://www.w3.org/2000/svg" viewBox="0 0 25 25"><style>.st0{fill:#a8a8a8}</style><path class="st0" d="M22 5.9c.2 0 .3 0 .4-.1l2.5-2.5c.1-.1.1-.3.1-.5-.1-.2-.2-.3-.4-.3l-1.9-.2-.2-1.9c0-.2-.1-.3-.3-.4-.2 0-.4 0-.5.1l-2.5 2.5c-.1.2-.2.3-.1.4l.2 2-.5.5c-1.7-1.6-4-2.6-6.6-2.7v-.9c0-.3-.2-.5-.5-.5s-.5.2-.5.5v.9c-5.3.2-9.6 4.6-9.8 10H.5c-.3 0-.5.2-.5.4 0 .3.2.5.5.5h.9c.2 5.4 4.6 9.7 9.9 9.9v.9c0 .3.2.5.5.5s.5-.2.5-.5v-.9c5.4-.2 9.7-4.6 9.9-9.9h.9c.3 0 .5-.2.5-.5s-.2-.5-.5-.5h-.9c-.1-2.5-1.1-4.8-2.7-6.6l.5-.5 2 .3zm-.3-4.4l.1 1.3c0 .2.2.4.4.4l1.3.1L21.8 5l-1.6-.2-.2-1.6 1.7-1.7zm-.4 11.3h-.7c-.3 0-.5.2-.5.5s.2.5.5.5h.7c-.2 4.9-4.1 8.8-9 9V22c0-.3-.2-.5-.5-.5s-.5.2-.5.5v.7c-4.9-.2-8.8-4.1-9-9H3c.3 0 .5-.2.5-.5s-.2-.5-.5-.5h-.7c.2-4.9 4.1-8.8 9-9v.7c0 .3.2.5.5.5s.5-.2.5-.5v-.7c2.3.1 4.3 1 5.9 2.4l-1.4 1.4c-1.3-1.2-3.1-1.9-5-1.9-4.1 0-7.5 3.4-7.5 7.5s3.4 7.5 7.5 7.5 7.5-3.4 7.5-7.5c0-1.9-.7-3.6-1.9-5l1.4-1.4c1.4 1.7 2.3 3.8 2.5 6.1zm-9.9.8c.1.1.2.1.3.1.1 0 .2 0 .3-.1l2.5-2.5c.5.6.8 1.4.8 2.2 0 2-1.6 3.6-3.6 3.6s-3.6-1.6-3.6-3.6 1.6-3.6 3.6-3.6c.8 0 1.6.3 2.2.8L11.4 13c-.1.1-.1.4 0 .6zm3.3-3.9c-.8-.6-1.8-1-2.9-1-2.5 0-4.6 2-4.6 4.6 0 2.5 2 4.6 4.6 4.6 2.5 0 4.6-2 4.6-4.6 0-1.1-.4-2.1-1-2.9L16.8 9c1 1.2 1.6 2.7 1.6 4.3 0 3.6-2.9 6.6-6.6 6.6-3.6 0-6.6-2.9-6.6-6.6 0-3.6 2.9-6.6 6.6-6.6 1.6 0 3.1.6 4.3 1.6l-1.4 1.4zm0 0"/></svg>