<svg id="&#x421;&#x43B;&#x43E;&#x439;_1" xmlns="http://www.w3.org/2000/svg" viewBox="0 0 25 25"><style>.st0{fill:#a8a8a8}</style><path class="st0" d="M24.3 8.2L13 4.3v-.7c0-.3-.2-.5-.5-.5-.6 0-1-.5-1-1 0-.6.5-1 1-1 .6 0 1 .5 1 1h1c0-.9-.6-1.8-1.6-2-1.1-.3-2.2.4-2.5 1.5-.3 1.1.4 2.2 1.5 2.5v.2L.7 8.2c-.4.2-.7.6-.7 1.1 0 .6.5 1.1 1.1 1.1h2.4l-.2 5-.1 2.5-.1 3.5c0 .1 0 .2.1.3l2.1 3.1c.1.1.3.2.4.2.2 0 .3-.1.4-.2l1.4-2.2.6-.9c.1-.1.1-.2.1-.3v-1.1l-.4-9.8h.9l-.4 10.8c0 .1 0 .2.1.3l2.1 3.1c.1.1.3.2.4.2.2 0 .3-.1.4-.2l2.1-3.1c.1-.1.1-.2.1-.3L13 10.4h4.1v.5c-.3.1-.7.2-.9.5-.3.3-.6.7-.6 1.1v.2l.9 2.7c.1.3.3.5.6.6v1.2c-.3.1-.5.3-.6.6l-.9 2.7v.2c0 .4.3.8.6 1.1.3.2.6.4.9.5v2.1c0 .3.2.5.5.5h2.1c.3 0 .5-.2.5-.5v-2.1c.3-.1.7-.2.9-.5.3-.3.6-.7.6-1.1v-.2l-.9-2.7c-.1-.3-.3-.5-.6-.6V16c.3-.1.5-.3.6-.6l.9-2.7v-.2c0-.4-.3-.8-.6-1.1-.1-.2-.4-.4-.8-.4v-.5h3.5c.5 0 .9-.3 1.1-.7.2-.7 0-1.4-.6-1.6zm-20 9.5v-.9l2 2.5.9 1.2v.8l-.1.2-2.8-3.8zm1-1.3l-.9-1.1.2-5.9h2.1l.4 9.3-1.8-2.3zm.4 7.1l-1.6-2.3.1-1.9 1 1.2 1.4 1.7-.9 1.3zm5.2 0l-1.6-2.3.6-11.8H12l.4 9.4h-.9v1h1v.5h-1v1h.9l-1.5 2.2zm8.4-13.1h-1v-1h1v1zm0 6.8h-1v-1h1v1zm0 6.8h-1v-1h1v1zm1.5-3.2c-.2.3-.5.5-.9.5l-1.1-.2h-.2l-1.1.2c-.4 0-.7-.2-.9-.5l.9-2.6h2.3l1 2.6zm0-8.3l-.9 2.6h-2.3l-.9-2.6c.2-.3.5-.5.9-.5l1.1.2h.2L20 12c.3 0 .6.2.8.5zm3-3.1h-3.5v-.5c0-.3-.2-.5-.5-.5h-2.1c-.3 0-.5.2-.5.5v.5H13v-.5c0-.3-.2-.5-.5-.5H9.4c-.3 0-.5.2-.5.5v.5h-1v-.5c0-.3-.2-.5-.5-.5H4.2c-.3 0-.5.2-.5.5v.5H1.1L1 9.3v-.1l11.4-3.9 11.4 3.9.1.1c.1 0 0 .1-.1.1zm0 0"/></svg>