<?xml version="1.0" encoding="iso-8859-1"?>
<!-- Generator: Adobe Illustrator 22.0.1, SVG Export Plug-In . SVG Version: 6.00 Build 0)  -->
<svg version="1.1" id="Capa_1" xmlns="http://www.w3.org/2000/svg" xmlns:xlink="http://www.w3.org/1999/xlink" x="0px" y="0px"
	 viewBox="198.75 388.75 16.5 16.5" style="enable-background:new 198.75 388.75 16.5 16.5;" xml:space="preserve">
<g>
	<path style="fill:#A8A8A8;" d="M213.545,389h-13.091c-0.802,0-1.455,0.652-1.455,1.455v13.091c0,0.802,0.652,1.455,1.455,1.455
		h13.091c0.802,0,1.455-0.652,1.455-1.455v-13.091C215,389.652,214.348,389,213.545,389z M200.455,389.727h13.091
		c0.401,0,0.727,0.326,0.727,0.727v1.455h-14.545v-1.455C199.727,390.054,200.054,389.727,200.455,389.727z M213.545,404.273
		h-13.091c-0.401,0-0.727-0.326-0.727-0.727v-10.909h14.545v10.909C214.273,403.946,213.946,404.273,213.545,404.273z"/>
	<circle style="fill:#A8A8A8;" cx="200.818" cy="390.818" r="0.364"/>
	<circle style="fill:#A8A8A8;" cx="202.273" cy="390.818" r="0.364"/>
	<circle style="fill:#A8A8A8;" cx="203.727" cy="390.818" r="0.364"/>
	<path style="fill:#A8A8A8;" d="M201.545,400.636h7.273c0.201,0,0.364-0.163,0.364-0.364v-5.818c0-0.201-0.163-0.364-0.364-0.364
		h-7.273c-0.201,0-0.364,0.163-0.364,0.364v5.818C201.182,400.474,201.344,400.636,201.545,400.636z M201.909,394.818h6.545v5.091
		h-6.545V394.818z"/>
	<path style="fill:#A8A8A8;" d="M212.455,402.091h-10.909c-0.201,0-0.364,0.163-0.364,0.364s0.163,0.364,0.364,0.364h10.909
		c0.201,0,0.364-0.163,0.364-0.364S212.656,402.091,212.455,402.091z"/>
	<path style="fill:#A8A8A8;" d="M212.455,395.545h-2.182c-0.201,0-0.364,0.163-0.364,0.364c0,0.201,0.163,0.364,0.364,0.364h2.182
		c0.201,0,0.364-0.163,0.364-0.364C212.818,395.708,212.656,395.545,212.455,395.545z"/>
	<path style="fill:#A8A8A8;" d="M212.455,397.727h-2.182c-0.201,0-0.364,0.163-0.364,0.364s0.163,0.364,0.364,0.364h2.182
		c0.201,0,0.364-0.163,0.364-0.364S212.656,397.727,212.455,397.727z"/>
	<path style="fill:#A8A8A8;" d="M212.455,399.909h-2.182c-0.201,0-0.364,0.163-0.364,0.364s0.163,0.364,0.364,0.364h2.182
		c0.201,0,0.364-0.163,0.364-0.364S212.656,399.909,212.455,399.909z"/>
</g>
</svg>
