<?xml version="1.0" encoding="iso-8859-1"?>
<!-- Generator: Adobe Illustrator 22.0.1, SVG Export Plug-In . SVG Version: 6.00 Build 0)  -->
<svg version="1.1" id="Capa_1" xmlns="http://www.w3.org/2000/svg" xmlns:xlink="http://www.w3.org/1999/xlink" x="0px" y="0px"
	 viewBox="198.75 388.75 16.5 16.5" style="enable-background:new 198.75 388.75 16.5 16.5;" xml:space="preserve">
<g>
	<path style="fill:#A8A8A8;" d="M211.03,400.04"/>
	<path style="fill:#A8A8A8;" d="M210.452,400.884"/>
	<path style="fill:#A8A8A8;" d="M206.933,398.261c0.17,0.011,0.333,0.012,0.49,0.005c-0.104-0.005-0.208-0.007-0.312-0.007
		C207.051,398.259,206.992,398.26,206.933,398.261z"/>
	<path style="fill:#A8A8A8;" d="M207.11,389.009c-2.55,0-4.625,2.075-4.625,4.625c0,1.58,0.796,2.977,2.008,3.811
		c-0.197,0.068-0.391,0.144-0.582,0.227c-0.906,0.395-1.739,0.96-2.458,1.68c-1.511,1.511-2.343,3.52-2.343,5.657h1.25
		c0-2.892,1.829-5.365,4.391-6.324c0.682-0.255,1.417-0.404,2.182-0.423c0.059-0.002,0.118-0.002,0.177-0.002
		c0.105,0,0.209,0.003,0.312,0.007c1.432-0.066,2.304-0.821,2.304-0.821c1.212-0.835,2.008-2.232,2.008-3.811
		C211.735,391.083,209.66,389.009,207.11,389.009z M207.11,397.009c-1.861,0-3.375-1.514-3.375-3.375
		c0-1.861,1.514-3.375,3.375-3.375c1.861,0,3.375,1.514,3.375,3.375C210.485,395.495,208.971,397.009,207.11,397.009z"/>
	<path style="fill:#A8A8A8;" d="M214.498,398.125c-0.432-0.432-1.132-0.432-1.563,0l-4.383,4.383
		c-0.03,0.03-0.052,0.067-0.063,0.108l-0.576,2.081c-0.024,0.085,0,0.177,0.063,0.239c0.063,0.063,0.154,0.087,0.239,0.063
		l2.081-0.576c0.041-0.011,0.078-0.033,0.108-0.063l4.383-4.383c0.431-0.432,0.431-1.131,0-1.564L214.498,398.125z M209.087,402.668
		l3.587-3.587l1.157,1.157l-3.587,3.587L209.087,402.668z M208.856,403.132l0.924,0.924l-1.278,0.354L208.856,403.132z
		 M214.439,399.63l-0.26,0.26l-1.157-1.157l0.261-0.261c0.24-0.24,0.629-0.24,0.868,0l0.288,0.288
		C214.679,399.001,214.679,399.39,214.439,399.63L214.439,399.63z M214.439,399.63"/>
</g>
</svg>
