<?xml version="1.0" encoding="iso-8859-1"?>
<!-- Generator: Adobe Illustrator 22.0.1, SVG Export Plug-In . SVG Version: 6.00 Build 0)  -->
<svg version="1.1" id="&#x421;&#x43B;&#x43E;&#x439;_1"
	 xmlns="http://www.w3.org/2000/svg" xmlns:xlink="http://www.w3.org/1999/xlink" x="0px" y="0px" viewBox="0 0 16.5 16.5"
	 style="enable-background:new 0 0 16.5 16.5;" xml:space="preserve">
<g>
	<path style="fill:#A8A8A8;" d="M13.204,10.546c-0.976,0-1.847,0.438-2.403,1.116L6.138,9.207c0.109-0.296,0.169-0.615,0.169-0.944
		c0-0.332-0.06-0.648-0.173-0.947l4.659-2.452c0.553,0.681,1.427,1.123,2.407,1.123c1.67,0,3.034-1.283,3.034-2.861
		s-1.36-2.86-3.034-2.86c-1.674,0-3.034,1.282-3.034,2.86c0,0.332,0.06,0.651,0.173,0.947L5.683,6.526
		C5.13,5.842,4.256,5.403,3.276,5.403c-1.67,0-3.034,1.282-3.034,2.86s1.364,2.861,3.038,2.861c0.98,0,1.854-0.442,2.411-1.126
		l4.659,2.455c-0.113,0.299-0.176,0.621-0.176,0.953c0,1.575,1.36,2.861,3.034,2.861s3.034-1.283,3.034-2.861
		S14.878,10.546,13.204,10.546L13.204,10.546z M13.204,1.167c1.149,0,2.083,0.88,2.083,1.963c0,1.083-0.934,1.963-2.083,1.963
		c-1.149,0-2.083-0.88-2.083-1.963C11.121,2.048,12.058,1.167,13.204,1.167L13.204,1.167z M3.279,10.227
		c-1.149,0-2.083-0.88-2.083-1.963C1.197,7.181,2.13,6.3,3.279,6.3c1.149,0,2.083,0.88,2.083,1.963
		C5.362,9.347,4.425,10.227,3.279,10.227L3.279,10.227z M13.204,15.367c-1.149,0-2.083-0.881-2.083-1.964
		c0-1.083,0.934-1.963,2.083-1.963c1.149,0,2.083,0.88,2.083,1.963C15.286,14.486,14.353,15.367,13.204,15.367L13.204,15.367z
		 M13.204,15.367"/>
</g>
</svg>
