<?xml version="1.0" encoding="iso-8859-1"?>
<!-- Generator: Adobe Illustrator 22.0.1, SVG Export Plug-In . SVG Version: 6.00 Build 0)  -->
<svg version="1.1" id="&#x421;&#x43B;&#x43E;&#x439;_1"
	 xmlns="http://www.w3.org/2000/svg" xmlns:xlink="http://www.w3.org/1999/xlink" x="0px" y="0px" viewBox="0 0 20 16.497"
	 style="enable-background:new 0 0 20 16.497;" xml:space="preserve">
<g>
	<g>
		<path style="fill:#D24A43;" d="M0.118,1.899c-0.062,0-0.112,0.05-0.112,0.112v1.4c0,0.062,0.05,0.112,0.112,0.112h13.839V1.899
			H0.118z"/>
		<path style="fill:#D24A43;" d="M19.984,1.899h-3.605V0.476h-1.2v1.531V3.63v1.314h1.2V3.63V3.522h3.605
			c0.012,0,0.022-0.01,0.022-0.022V1.921C20.006,1.909,19.996,1.899,19.984,1.899z"/>
	</g>
	<g>
		<path style="fill:#D24A43;" d="M0.087,12.505c-0.044,0-0.08,0.05-0.08,0.112v1.4c0,0.062,0.036,0.112,0.08,0.112h9.932v-1.623
			H0.087z"/>
		<path style="fill:#D24A43;" d="M19.959,12.505h-7.417v-1.423h-1.2v1.531v1.623v1.314h1.2v-1.314v-0.108h7.417
			c0.026,0,0.047-0.01,0.047-0.022v-1.578C20.006,12.514,19.985,12.505,19.959,12.505z"/>
	</g>
	<g>
		<path style="fill:#D24A43;" d="M19.895,7.412c0.062,0,0.112,0.05,0.112,0.112v1.4c0,0.062-0.05,0.112-0.112,0.112H6.056V7.412
			H19.895z"/>
		<path style="fill:#D24A43;" d="M3.634,5.779v1.423H0.029c-0.012,0-0.022,0.01-0.022,0.022v1.578c0,0.012,0.01,0.022,0.022,0.022
			h3.605v0.108v1.314h1.2V8.933V7.31V5.779H3.634z"/>
	</g>
</g>
</svg>
