<svg id="&#x421;&#x43B;&#x43E;&#x439;_1" xmlns="http://www.w3.org/2000/svg" viewBox="0 0 25 25"><style>.st0{fill:#a8a8a8}.st1{fill:none}</style><path class="st0" d="M18.5 14.2c-1.7-2-3.8-3.1-6-3.1s-4.3 1.1-6 3.1C5 16 4.1 18.3 4.1 20.4c0 1 .3 1.7.9 2.2.6.5 1.4.7 2.2.7.9 0 1.9-.2 2.9-.4.9-.2 1.7-.3 2.3-.3.5 0 1.3.1 2.1.3 1.9.4 4.1.8 5.3-.3.6-.5.9-1.2.9-2.2.2-2.1-.7-4.4-2.2-6.2zm.5 7.3c-.7.6-2.6.3-4.1 0-.9-.2-1.7-.3-2.4-.3-.8 0-1.7.2-2.6.3-1.5.3-3.3.6-4 0-.1-.1-.4-.3-.4-1.1 0-1.7.8-3.7 2.1-5.2 1.4-1.7 3.1-2.6 4.9-2.6 1.7 0 3.5.9 4.9 2.6 1.3 1.5 2.1 3.5 2.1 5.2-.1.7-.4 1-.5 1.1zm0 0"/><path class="st1" d="M0 1.7h25v21.6H0z"/><path class="st0" d="M18.6 3.2c-.6-.9-1.5-1.4-2.4-1.4-.9 0-1.8.5-2.4 1.4-.6.8-.9 1.9-.9 3.1 0 1.2.3 2.2.9 3.1.6.9 1.5 1.4 2.4 1.4.9 0 1.8-.5 2.4-1.4.6-.8.9-1.9.9-3.1 0-1.2-.3-2.3-.9-3.1zm-1.2 5.3c-.2.3-.6.8-1.2.8s-1-.5-1.2-.8c-.4-.6-.6-1.4-.6-2.3s.2-1.6.6-2.2c.2-.3.6-.8 1.2-.8s1 .5 1.2.8c.4.6.6 1.4.6 2.3.1.8-.2 1.7-.6 2.2zm-6.2-5.3c-.6-.9-1.5-1.4-2.4-1.4-.9 0-1.8.5-2.4 1.4-.6.8-.9 1.9-.9 3.1 0 1.2.3 2.2.9 3.1.6.9 1.5 1.4 2.4 1.4.9 0 1.8-.5 2.4-1.4.5-.9.8-2 .8-3.1 0-1.2-.3-2.3-.8-3.1zM10 8.5c-.2.3-.7.8-1.2.8-.6 0-1-.5-1.2-.8-.5-.5-.7-1.4-.7-2.2s.2-1.7.6-2.3c.2-.3.6-.8 1.2-.8s1 .5 1.2.8c.4.6.6 1.4.6 2.3S10.4 8 10 8.5zm14.8 1.8c-.2-.8-.8-1.5-1.5-1.7-.6-.2-1.2-.2-1.8.1-.8.3-1.5 1.2-1.9 2.2-.3.8-.3 1.7-.1 2.5.2.8.8 1.5 1.5 1.7.2.1.5.1.8.1.4 0 .7-.1 1.1-.2.8-.4 1.5-1.2 1.9-2.2.2-.9.3-1.8 0-2.5zm-1.5 2c-.2.6-.6 1.1-1.1 1.4-.2.1-.4.2-.7.1-.6-.2-.9-1.3-.5-2.3.2-.6.6-1.1 1.1-1.4.1-.1.3-.1.4-.1h.3c.7.2.9 1.3.5 2.3zm-18-1.4C5 9.8 4.3 9 3.5 8.7c-.6-.3-1.3-.4-1.9-.2-.7.3-1.2.9-1.5 1.7-.2.8-.1 1.7.1 2.5.4 1 1 1.8 1.9 2.2.3.2.7.2 1.1.2.3 0 .5 0 .8-.1.7-.3 1.2-.9 1.5-1.7.2-.7.1-1.6-.2-2.4zm-1.9 2.8c-.3.1-.5 0-.7-.1-.5-.2-.9-.7-1.1-1.4-.4-1-.1-2.1.5-2.3.3-.1.5 0 .7.1.5.2.9.7 1.1 1.4.4 1 .2 2.1-.5 2.3zm0 0"/></svg>